<svg xmlns="http://www.w3.org/2000/svg" viewBox="0 0 56.85 196.31"><title>i_doctor</title><g id="レイヤー_2" data-name="レイヤー 2"><g id="レイヤー_1-2" data-name="レイヤー 1"><path d="M19.55,29.68a25.32,25.32,0,0,1-3.79-10A25.15,25.15,0,0,1,16.4,7.85C19,.16,27-2.38,33.3,2.48a12.46,12.46,0,0,1,5,8.3A24.52,24.52,0,0,1,34,28.84L33.2,30l1.1.75A16.75,16.75,0,0,1,41.76,43a2.1,2.1,0,0,0,.79,1.33,19.17,19.17,0,0,1,6.71,8.7,103.58,103.58,0,0,1,7,25.92,90.07,90.07,0,0,1-.06,21.52c-.6,5.07-1.65,10.08-2.29,15.14-1.33,10.63-1.6,21.25.38,31.85a17.24,17.24,0,0,1,.17,4.65c-.32,3.51-2,5.4-5.49,6.18-1,.21-1.29.52-1.24,1.55a110.94,110.94,0,0,1-1,22.82,92.38,92.38,0,0,1-2.12,9.07A6.68,6.68,0,0,1,43.42,194,2.55,2.55,0,0,1,39,194a14.18,14.18,0,0,1-2-4.43c-1.15-5.05-2.15-10.14-3.1-15.23-.89-4.71-1.66-9.43-2.45-14.15-.12-.72-.36-1-1.14-1q-3.36,0-6.71-.06c-.79,0-1.05.26-1.07,1-.22,8.06-.44,16.13-.71,24.19-.09,2.67-.29,5.33-.51,8a6.48,6.48,0,0,1-.62,2.05c-1,2.23-3.17,2.67-4.8.84a15.28,15.28,0,0,1-2.4-3.82A96.5,96.5,0,0,1,8,173.55,231.43,231.43,0,0,1,2.68,139C1.73,126.37.85,113.7.32,101-.08,91.48,0,81.93.1,72.38A53.45,53.45,0,0,1,6.16,49.3c.88-1.76,2.47-3.18,3.28-5s.84-3.77,1.48-5.58a15.06,15.06,0,0,1,7.42-8.44C18.68,30.12,19,29.94,19.55,29.68Zm.26,129.44a22.5,22.5,0,0,1-2.78-.36c-3.47-.88-5.17-3.46-5.93-6.7a43.49,43.49,0,0,1-.34-18.31,77.45,77.45,0,0,1,3.27-12c1.65-4.56,5.46-6.67,10.2-6.18a16,16,0,0,1,6.8,2.48,31.53,31.53,0,0,1,13.53,17.56c1.67,5.15,2.1,10.55,2.66,15.9.14,1.38.24,2.75.36,4.11,2.49-.14,3.74-1.19,4-3.4a13.26,13.26,0,0,0,.05-3.21c-.41-3.69-1.09-7.35-1.33-11.05a106.82,106.82,0,0,1,1.43-26.72A132.35,132.35,0,0,0,54,93.09a84.12,84.12,0,0,0-4.34-30.77c-1.18-3.5-2.54-7-4-10.37a11.62,11.62,0,0,0-4-4.77c-.38,1-.65,1.88-1.05,2.69a1.23,1.23,0,0,0,.18,1.48,16,16,0,0,1,2.11,3.58c1.43,3.84-.49,7.44-4.43,8.65a1.38,1.38,0,1,1-1-2.57,17.08,17.08,0,0,0,1.79-1,3,3,0,0,0,1.38-2.88,6.1,6.1,0,0,0-1.72-3.74,55,55,0,0,1-5.32,4.91,12.85,12.85,0,0,1-4.89,2c-2.13.41-3.62-1-3.67-3.23a10.77,10.77,0,0,1,2.58-7.41,6.25,6.25,0,0,1,6.53-2.27c1.3.31,2.56.81,4,1.27.19-.55.39-1.18.63-1.79.46-1.12.1-1.76-.94-2.4q-5-3.12-9.94-6.46c-2.17-1.48-2.15-1.6-4.4-.18-3.31,2.09-6.56,4.25-9.85,6.36a1.8,1.8,0,0,0-.81,2.06c.49,2.75,1,5.49,1.44,8.25.13.78.58,1.08,1.3,1.32a18,18,0,0,1,3.73,1.55c1.79,1.08,1.74,3,.06,4.22a3.7,3.7,0,0,1-5.95-1.56c-.8-1.75-1.81-2.68-3.71-2.59H9.49A1.3,1.3,0,0,1,8.26,56a1.35,1.35,0,0,1,1.61-1.24c.46,0,.92.1,1.5.17l-1.21-6.61-.36-.07C9,49.85,8.11,51.4,7.43,53a59.45,59.45,0,0,0-4.78,24c.21,10.3.31,20.61.7,30.9.53,14.17,1.51,28.31,3.34,42.38A198.19,198.19,0,0,0,13,181.62c1,3.31,2.33,6.52,3.59,9.75a10,10,0,0,0,1.34,2l.45-.12a41.72,41.72,0,0,0,.6-4.57c.22-7.95.34-15.89.52-23.84C19.52,162.93,19.69,161.07,19.81,159.12Zm24.89-3c0-.54,0-.85,0-1.16-.42-3.88-.84-7.77-1.29-11.65a30.54,30.54,0,0,0-6.93-16.78c-2.86-3.36-6.07-6.27-10.33-7.72-4.57-1.56-8.06-.07-9.76,4.41A50.75,50.75,0,0,0,13,146.72a31.92,31.92,0,0,0,1.13,5.73,4.77,4.77,0,0,0,4.43,3.76c1.44.11,1.48.11,1.59-1.3.64-7.8,1.23-15.61,2-23.39a31.1,31.1,0,0,1,1.5-6A2.07,2.07,0,0,1,25.72,124a2.37,2.37,0,0,1,2.21,1.57,13.73,13.73,0,0,1,1.06,3c1.09,6.29,2.09,12.59,3.13,18.89.48,2.94,1,5.88,1.44,8.67ZM18.17,14.91a23.86,23.86,0,0,0,3.52,13,1.42,1.42,0,0,0,1.62.76,33.67,33.67,0,0,1,5.94,0,1.91,1.91,0,0,0,2-.73,21.9,21.9,0,0,0,4.42-16.1,9.72,9.72,0,0,0-6.07-8.29,7.33,7.33,0,0,0-10,3.8A17.34,17.34,0,0,0,18.17,14.91Zm22.7,177.34.67-.06c3.76-10.78,3.64-22,3.47-33.35l-10.91.38c.23,1.39.43,2.64.65,3.9,1.44,7.91,2.84,15.84,4.37,23.74A42.84,42.84,0,0,0,40.87,192.25ZM26.16,127.83l-.7.06c-1.4,9.36-1.71,18.84-2.67,28.37h8Q28.44,142,26.16,127.83ZM36.48,51.45c-2.93-2.44-6.31-1.72-7.81,1.63a12,12,0,0,0-.84,2.61,7.79,7.79,0,0,0,.09,1.86,6.68,6.68,0,0,0,1.93-.24A17,17,0,0,0,36.48,51.45ZM38.65,42c-.48-4-3.88-8.09-7-9.62a.86.86,0,0,0-.75.06C30,33.19,29.09,34,28,34.93ZM23.52,34.51c-.62-.68-1.18-1.2-1.63-1.8a1,1,0,0,0-1.51-.33,12.58,12.58,0,0,0-5.75,5c-.6,1-1,2.16-1.65,3.53Zm.75-3.25,1.66,1.66,2-1.66Z"/></g></g></svg>