<svg xmlns="http://www.w3.org/2000/svg" viewBox="0 0 255.25 204.52"><title>i_supporter</title><g id="レイヤー_2" data-name="レイヤー 2"><g id="レイヤー_1-2" data-name="レイヤー 1"><path d="M122.63,104.21c-2.63-.95-4.94-1.71-7.18-2.61-6.21-2.51-11.61-6.36-16.89-10.39-1.68-1.28-3.37-2.56-5-3.92a15.66,15.66,0,0,1-4.35-5.5,8.76,8.76,0,0,1,2.37-10.72,15.36,15.36,0,0,1,20,.62,82.1,82.1,0,0,1,16,21.8c.18.35.37.68.64,1.17.46-.7.84-1.3,1.24-1.88A153.69,153.69,0,0,1,149,69.47a26.19,26.19,0,0,1,5.31-4c6.87-3.93,13.3-.74,14.51,7.1a17.25,17.25,0,0,1-4.55,15c-4.89,5.35-10.19,10.18-17,13-3,1.24-6.08,2.19-9.12,3.27a1.56,1.56,0,0,0-.75.47c3.32.48,6.64,1,10,1.43,7.17.89,14.35,1.75,21.53,2.53a45,45,0,0,0,12.9-.05,13.46,13.46,0,0,0,8.56-5.27A28.87,28.87,0,0,0,195,93.8a9.86,9.86,0,0,0-.1-3.66A71.33,71.33,0,0,1,195,75.9c.13-1.14.73-1.77,1.64-1.62s1.3.88,1.24,1.84c-.15,2.63-.27,5.26-.39,7.9a1.81,1.81,0,0,0,.35,1.18c.57-2.29,1.17-4.57,1.72-6.86,1.6-6.75,3.09-13.53,4.82-20.25a31.72,31.72,0,0,1,5.48-11.5,2.61,2.61,0,0,0,.42-1.32c.49-6.37,3.32-11.24,9.08-14.24.07,0,.12-.1.25-.22a27.82,27.82,0,0,1-3.38-9.22c-.79-4.71-.93-9.4.65-14,1.24-3.61,3.42-6.42,7.37-7.34s8.32,1,11,4.8,3.14,8,2.63,12.37c-.72,6.08-1.77,8.86-5.13,13.91.68.53,1.4,1,2.05,1.61A17.32,17.32,0,0,1,240.58,44a3.33,3.33,0,0,0,1.35,2.48,17.49,17.49,0,0,1,5.8,7.92c6,15.72,8.73,31.93,7,48.74-.58,5.71-1.63,11.37-2.27,17.08-1.22,10.87-1.56,21.74.23,32.61a23.41,23.41,0,0,1,.19,6.31,6.29,6.29,0,0,1-5.36,5.82c-.3.06-.59.18-1,.3,0,5,.12,9.93,0,14.87a78.7,78.7,0,0,1-2.4,18,15.19,15.19,0,0,1-1.35,3.44c-1.3,2.39-3.88,2.45-5,0a35.23,35.23,0,0,1-2.47-8c-1.59-8.88-3-17.8-4.41-26.7-.05-.31-.13-.62-.23-1.06h-7.89c-.15,2.43-.38,4.93-.43,7.42-.14,6.47-.17,13-.31,19.41,0,2.44-.27,4.86-.44,7.29a6.42,6.42,0,0,1-.26,1.29c-.4,1.46-.9,3-2.65,3.18s-2.62-1-3.39-2.24c-2.08-3.47-3.13-7.33-4.18-11.17a190.18,190.18,0,0,1-5.81-30.43c-2-18.71-4.7-37.3-8.36-55.76-.34-1.72-.6-3.46-.9-5.19,0,0-.06,0-.22-.1-.26.49-.56,1-.82,1.49-3.55,7-9.32,10.56-17.09,10.41-5.9-.11-11.8-.62-17.67-1.27-7.66-.84-15.28-2-22.92-3-1.85-.25-3.68-.62-5.52-.94-.79,3.36-2,4.55-4.49,4.53-2.3,0-3.57-1.09-4.19-3.67-1.38.2-2.78.44-4.19.6-11.5,1.31-23,2.69-34.52,3.88a34.6,34.6,0,0,1-13.51-1.27,16.37,16.37,0,0,1-10.08-8.07l-1.65-2.94c-.4,2.24-.76,4.22-1.11,6.2-1.64,9.44-3.41,18.85-4.87,28.32-1.07,7-1.75,14-2.59,21-1.71,14.24-3.84,28.4-8.4,42.07a44.34,44.34,0,0,1-2.33,5.23,4.94,4.94,0,0,1-1.27,1.57c-1.52,1.29-3.38,1-4.15-.85a13.54,13.54,0,0,1-1.08-4.5c-.18-4.34-.08-8.7-.22-13-.19-6.23-.49-12.45-.74-18.68,0-.27-.06-.54-.09-.8H24.48c-.41,2.58-.77,5.06-1.19,7.54-1.35,7.86-2.67,15.73-4.11,23.58a22.16,22.16,0,0,1-1.69,4.58,2.71,2.71,0,0,1-5.1,0c-1.52-2.87-2-6-2.51-9.19a134.29,134.29,0,0,1-1.27-26c0-.31,0-.63,0-1.06-.48-.13-1-.26-1.44-.41a6.45,6.45,0,0,1-4.94-6.57A68.54,68.54,0,0,1,3,149.85a100,100,0,0,0,.47-21.18c-.53-6.35-1.47-12.68-2.34-19A108.12,108.12,0,0,1,7.66,54.05a18.89,18.89,0,0,1,6-7.92,2.26,2.26,0,0,0,.8-1.32,17.9,17.9,0,0,1,7.85-13.27c.07,0,.1-.12.18-.23a27,27,0,0,1-5.17-18.48c.38-5.55,2.89-10,8.31-12.15A8.92,8.92,0,0,1,36.33,3.77c2.49,3.28,3.13,7.12,3.21,11.08a29.69,29.69,0,0,1-3.95,16l.76.44c5.25,2.91,7.95,7.46,8.52,13.34a5.15,5.15,0,0,0,1,2.72c3.06,4.21,4.7,9,5.92,14,1.83,7.51,3.53,15.07,5.28,22.6a3.12,3.12,0,0,0,.55,1.23,7,7,0,0,0,.1-1c-.1-2.47-.22-4.94-.33-7.42,0-.43-.21-1,0-1.29a2.61,2.61,0,0,1,1.39-1.17c.87-.14,1.38.55,1.42,1.42.14,3.11.37,6.22.35,9.33,0,2.55-.35,5.1-.53,7.64a2.31,2.31,0,0,0,0,1c1.16,3.15,2.33,6.33,4.53,8.92,3.27,3.86,7.6,5.65,12.59,6.08,6,.52,11.9-.16,17.81-.83,7.41-.85,14.82-1.84,22.22-2.78C118.92,104.82,120.61,104.52,122.63,104.21Zm115-48.47c-.6.79-1.17,1.61-1.82,2.35-1.88,2.16-3.93,4.1-6.84,4.81-2.52.61-4.41-.78-4.43-3.39a12.25,12.25,0,0,1,2.3-7.42A6.2,6.2,0,0,1,234,49.63c1,.29,1.92.75,3.05,1.2.24-1,.54-2.12.71-3.21a1.26,1.26,0,0,0-.48-.94c-3.92-2.82-7.86-5.6-11.9-8.47-1,.64-2.18,1.37-3.31,2.18-2.72,2-5.42,3.94-8.12,5.92a1.77,1.77,0,0,0-.74,1.88c.47,2.91.95,5.82,1.38,8.74a1.54,1.54,0,0,0,1.21,1.38,16.51,16.51,0,0,1,3.73,1.81c1.45,1,1.4,2.69.11,3.92-2.07,2-4.82,1.54-6.07-1.24-.79-1.75-1.63-2.92-3.72-2.89a1.24,1.24,0,0,1-1.15-1.55,1.37,1.37,0,0,1,1.5-1.25c.46,0,.91.08,1.44.13-.36-2.18-.71-4.24-1.1-6.58-.39.71-.65,1.15-.87,1.6a66.23,66.23,0,0,0-4.56,14.46c-2,8.92-3.82,17.87-6.73,26.55a2.68,2.68,0,0,0-.06,1.29c1,6.06,1.92,12.14,3.05,18.18,2.43,13,4.5,26.12,5.83,39.31a231.47,231.47,0,0,0,5.35,32.7c1.19,4.83,2.84,9.55,4.34,14.3a12.37,12.37,0,0,0,1.23,2.21,2.62,2.62,0,0,0,.62-1.43c.18-2.39.39-4.78.45-7.17.19-7.34.31-14.69.48-22,0-1.62.15-3.24.23-4.84-4.8-.52-6.88-2.29-8.14-6.87a16.69,16.69,0,0,1-.45-2,57.59,57.59,0,0,1,1.36-24.33,37.77,37.77,0,0,1,2.52-7.33c2.15-4.26,6.09-5.76,10.7-4.48a18.71,18.71,0,0,1,7.26,4,33.36,33.36,0,0,1,10.5,16.69c1.72,6.18,2.17,12.57,2.67,18.94.05.58.12,1.16.17,1.74,2.23-.36,3.21-1.15,3.48-3.16a15.69,15.69,0,0,0,0-4.64,113.57,113.57,0,0,1-.81-29.86c.53-5.63,1.58-11.22,2.24-16.84,1.24-10.52,1.42-21-.55-31.51a114.87,114.87,0,0,0-6-21.14,13.78,13.78,0,0,0-4.24-5.88c-.45,1.19-.9,2.29-1.24,3.42-.08.24.21.61.36.91a28.14,28.14,0,0,1,2.1,4.13,6.64,6.64,0,0,1-4,8.53c-1.06.45-2,.27-2.27-.54-.39-1,.12-1.63,1-2.09C239.88,61.86,240.3,58.45,237.6,55.74Zm-223-6.58A13.52,13.52,0,0,0,10.41,55c-.94,2.42-1.77,4.88-2.58,7.34a101.73,101.73,0,0,0-4,45.54c.89,7,2.33,13.86,2.58,20.91a125.3,125.3,0,0,1-.78,23.07,35.6,35.6,0,0,0-.3,7.37c.11,1.89,1.3,2.71,3.38,3,.05-.3.13-.6.16-.91.5-4.64.94-9.29,1.5-13.93a35.64,35.64,0,0,1,7.73-18.41,24,24,0,0,1,9.81-7.65,10.29,10.29,0,0,1,6.21-.74c3.69.84,5.79,3.44,6.92,6.82a60.67,60.67,0,0,1,3.28,26.41,31.69,31.69,0,0,1-1.62,7.2,6.86,6.86,0,0,1-6.7,4.73,4.05,4.05,0,0,0-.6.11c.22,5.66.5,11.25.64,16.83.1,4.16-.06,8.31,0,12.47,0,2,.37,4.06.56,6.09l.53.16c.09-.18.17-.36.25-.55.89-2.12,2-4.2,2.65-6.39,4.46-14.32,6.46-29.1,8.22-43.94,1.18-10,2.66-19.93,4.2-29.87,1.29-8.32,2.89-16.59,4.31-24.89a6.41,6.41,0,0,0,0-2.58c-1.78-7-3.62-14-5.46-20.95-1.51-5.7-3-11.41-4.58-17.09a30.87,30.87,0,0,0-1.85-4.22l-.28.07-1,6.35c.52-.07.87-.14,1.23-.17a1.4,1.4,0,0,1,1.7,1.28A1.37,1.37,0,0,1,45.22,60a6.22,6.22,0,0,1-.95.14,2,2,0,0,0-2.11,1.66,4.6,4.6,0,0,1-3,3.33,3.94,3.94,0,0,1-4.31-2c-.56-1.31,0-2.63,1.63-3.53,1-.54,2.15-.85,3.19-1.34.35-.16.79-.5.84-.82.55-3.07,1-6.14,1.51-9.21a1.77,1.77,0,0,0-.77-1.87L30,38.09c-4.25,3-8.19,5.8-12.11,8.61a1.14,1.14,0,0,0-.46.84c.19,1.12.48,2.22.74,3.33a27,27,0,0,1,2.73-1.16c2.51-.78,4.86-.48,6.73,1.51a11.46,11.46,0,0,1,3,8.69A3.24,3.24,0,0,1,26.47,63,11,11,0,0,1,21,59.71c-1.21-1.24-2.3-2.61-3.44-3.92-2,2.18-2.85,6.26,1.2,7.81a3.14,3.14,0,0,1,.31.18,1.25,1.25,0,0,1,.52,1.84,2,2,0,0,1-1.68.69,6.71,6.71,0,0,1-4.82-7.45,12,12,0,0,1,2.44-5.4,1.33,1.33,0,0,0,.29-1C15.49,51.38,15.06,50.35,14.62,49.16Zm116.69,53.39a70,70,0,0,0,16.4-5.3c6.26-3.08,11.24-7.75,15.58-13A13.28,13.28,0,0,0,165.45,71c-1.36-4-4.66-5.5-8.46-3.61a25.23,25.23,0,0,0-6.18,4.43,100.25,100.25,0,0,0-8.7,9.39c-4.07,5.07-7.86,10.36-11.73,15.58a2.29,2.29,0,0,0-.5,1.6C130.23,99.73,130.79,101.06,131.31,102.55Zm-96.2,60.21c2.31.22,3.93-.61,4.8-2.6A15.84,15.84,0,0,0,41,156.64a51.87,51.87,0,0,0-.63-20.58,61.21,61.21,0,0,0-2.76-9.13,5.53,5.53,0,0,0-6.56-3.62,9.73,9.73,0,0,0-3.26,1.13,28.17,28.17,0,0,0-13.55,18.23c-1.22,4.8-1.56,9.84-2.23,14.78-.23,1.67-.27,3.38-.4,5.28H22a.47.47,0,0,0,.07-.17c1.22-8.37,2.38-16.75,3.67-25.12a56.21,56.21,0,0,1,1.6-6.48,2.33,2.33,0,0,1,2.3-1.79,2.19,2.19,0,0,1,2.09,1.69,13.31,13.31,0,0,1,.91,3.09c.61,6.07,1.16,12.15,1.69,18.24C34.62,155.68,34.85,159.18,35.11,162.76Zm208.68,0c-.63-5.32-1.19-10.31-1.81-15.3a31.64,31.64,0,0,0-10.57-20.24,15.33,15.33,0,0,0-6.71-3.79,5.76,5.76,0,0,0-6.76,2.83,17.75,17.75,0,0,0-1.57,3.73,58.88,58.88,0,0,0-2.65,23.17c.26,2.58.45,5.19,1.83,7.5a4,4,0,0,0,4.57,2c.18-2.37.35-4.76.54-7.14.49-6.29.9-12.59,1.51-18.87a32.15,32.15,0,0,1,1.41-5.91,2,2,0,0,1,2-1.55,2.34,2.34,0,0,1,2.2,1.6,15.6,15.6,0,0,1,1,3.06c.92,5.8,1.76,11.6,2.63,17.4.58,3.86,1.16,7.72,1.73,11.49ZM124.44,101.59c.54-1.06,1-2.09,1.56-3a1.63,1.63,0,0,0,0-1.75,79.88,79.88,0,0,0-16.79-23.27,12.25,12.25,0,0,0-15.76-.29C91.1,75.29,90.43,78,92,80.75a14.54,14.54,0,0,0,3.24,4.09,108.18,108.18,0,0,0,17.29,12.22A51.48,51.48,0,0,0,124.44,101.59ZM20.11,15.2c.07.7.16,1.93.32,3.16a21.85,21.85,0,0,0,4.28,11,1.77,1.77,0,0,0,1.24.56c2,0,4-.18,5.93-.11a1.25,1.25,0,0,0,1.4-.69,25.46,25.46,0,0,0,3.11-9.49c.5-4.08.51-8.15-1.12-12C33.07,2.38,27.7,1.33,23.62,5.3,21,7.86,20.08,11.09,20.11,15.2Zm215-.07c.07-4.47-1.25-7.83-3.77-10.09-4-3.57-9-2.57-11.24,2.26a8.7,8.7,0,0,0-.61,1.56A27.24,27.24,0,0,0,222,29.24c.3.54.61.61,1.23.58a33.52,33.52,0,0,1,5.58.07,1.73,1.73,0,0,0,2-.79C233.91,24.78,234.88,19.83,235.1,15.13ZM11.57,165.73c-.8,6.13.19,22.83,1.81,29.7.37,1.56.86,3.1,1.36,4.84,1.76-2.34,6.46-27,6.69-34.54Zm228.3,34.36.46-.1c3.15-5,4.22-28.53,3.23-34.24h-9.84c0,.43,0,.58.07.73,1.42,8.79,2.8,17.58,4.3,26.35C238.51,195.28,239.27,197.67,239.87,200.09ZM29.79,133.74l-.58,0c-1.41,9.71-2.83,19.43-4.23,29.09h7.29C31.33,153,31.08,143.34,29.79,133.74Zm200.54,29.12c-1.69-9.75-2.72-19.5-4.64-29.13-1.52,9.65-1.84,19.36-2.72,29.13ZM19.61,53.66a27.23,27.23,0,0,0,2.55,3.09,27.77,27.77,0,0,0,4.15,3.17c1.13.7,1.69.3,1.5-1a15.22,15.22,0,0,0-.91-3.57C25.55,51.88,22.74,51.19,19.61,53.66Zm215.93-.06c-3.1-2.41-5.85-1.72-7.23,1.75a14.61,14.61,0,0,0-.85,3,6.38,6.38,0,0,0,.23,1.81,7,7,0,0,0,1.68-.4A17.5,17.5,0,0,0,235.54,53.6ZM27.38,36.36l-2.92-2.74A14.8,14.8,0,0,0,17.71,43l.3.28Zm203.37-2.73-2.9,2.73,9.4,6.92.27-.27A14.75,14.75,0,0,0,230.75,33.63ZM33.9,33.39,31.77,36l9.72,6.51C41,38.73,37.76,34.82,33.9,33.39Zm187.43,0c-3.76,1.25-7.47,5.73-7.53,9L223.47,36ZM126.2,106.54c-.21,1.28.57,1.37,1.36,1.33,1.14-.06,1.23-.85,1.18-1.82ZM29.44,34.24l1.36-1.72H27.51Zm196.4,0,1.77-1.67h-3.28Z"/></g></g></svg>