<svg xmlns="http://www.w3.org/2000/svg" viewBox="0 0 75.33 193.11"><title>i_traveler</title><g id="レイヤー_2" data-name="レイヤー 2"><g id="レイヤー_1-2" data-name="レイヤー 1"><path d="M35.86,44.22c4.32-2.44,9.13-3.95,12.53-7.34-2.3-3.21-4.66-6.22-6.7-9.43a26.51,26.51,0,0,1-3.62-11c-.84.06-1.66.16-2.47.18-4.28.09-8.55.19-12.82.22a2.42,2.42,0,0,1-1.65-.7c-.74-.88,0-2,1.32-2,2,0,4.08,0,6.11,0,3.07-.08,6.13-.23,9.14-.35.31-1.87.51-3.57.9-5.23a12.17,12.17,0,0,1,3.1-5.72,8.65,8.65,0,0,1,12.19-.57,13.4,13.4,0,0,1,3.81,6c.18.53.33,1.06.53,1.71a12.91,12.91,0,0,0,1.26-.31L72.85,4.72c.47-.17,1.05-.45,1.45-.31a1.7,1.7,0,0,1,1,1.12,1.88,1.88,0,0,1-.8,1.41,17.77,17.77,0,0,1-3,1.37c-3.9,1.4-7.81,2.79-11.74,4.1-.84.29-1.08.62-1,1.5.34,8-1.1,15.58-5.93,22.23a1.68,1.68,0,0,0-.11.38c1,.81,2,1.71,3.07,2.51a59.12,59.12,0,0,0,4.88,3.47c4.7,2.84,7.31,7,8.62,12.29a100.13,100.13,0,0,1,3,21.41c.35,13.38.81,26.77.63,40.15-.17,12.17-1,24.34-1.77,36.49a183.75,183.75,0,0,1-4.33,30.43c-.44,1.9-1.07,3.76-1.66,5.62a10.76,10.76,0,0,1-.92,1.94c-.68,1.23-1.55,2.36-3.11,2.27s-2.47-1.29-3.08-2.67a23.11,23.11,0,0,1-1.63-8.54c-.35-9.46-.58-18.92-1.09-28.38a180.77,180.77,0,0,0-2.59-24.88c-.21-1.1-.62-2.17-.94-3.25l-.54,0a44.41,44.41,0,0,0-1.62,5.78c-1,6.95-1.91,13.92-2.68,20.9-.8,7.18-1.39,14.38-2.09,21.58-.42,4.33-.8,8.66-1.32,13a14.93,14.93,0,0,1-1.18,4.12c-1.17,2.67-3.76,2.83-5.37.38a18,18,0,0,1-2.68-8.59Q32.86,166,31.44,149.55c-.63-7.16-1.21-14.33-2-21.47-.41-3.76-1.24-7.47-1.84-11.22-.11-.74-.49-.79-1.12-.87a77.26,77.26,0,0,1-7.91-1.15c-3.93-.9-6.92-3.38-9.38-6.48A39.8,39.8,0,0,1,1.82,92C-1.71,76.4,0,61.23,6,46.51A15.8,15.8,0,0,1,18,36.42c7-1.4,12.77.67,17,6.57C35.23,43.37,35.52,43.75,35.86,44.22Zm3.58,145.57.4,0a21.56,21.56,0,0,0,.88-3.31c.49-4.12.9-8.25,1.3-12.38.7-7.23,1.3-14.47,2.09-21.69s1.63-14.28,2.72-21.37a26.78,26.78,0,0,1,2.46-7.32c1.07-2.21,3.51-2.09,4.69.09a11.16,11.16,0,0,1,1.29,3.58c.87,6.44,1.93,12.88,2.34,19.36.74,11.75,1.06,23.54,1.57,35.31a21.25,21.25,0,0,0,.24,3,12.81,12.81,0,0,0,1.83,5.33,15.06,15.06,0,0,0,1-1.92c.61-1.77,1.26-3.54,1.69-5.35a179.43,179.43,0,0,0,4.35-30.06c.74-11.56,1.57-23.12,1.77-34.69.23-12.74-.13-25.49-.41-38.23A116.3,116.3,0,0,0,66.92,56.9c-1.24-5.41-3.66-9.75-8.58-12.64a76,76,0,0,1-6.91-5.15c-.24-.19-.5-.36-.8-.56-3.76,3.89-8.86,5.5-13.3,8.09,0,.19,0,.28,0,.34,2.76,5.86,3.26,12.13,3.33,18.47a119.41,119.41,0,0,1-1.49,19,16.17,16.17,0,0,1-2.31,6.86c-1.69,2.46-4.19,3.21-6.77,1.71a13.44,13.44,0,0,1-3.72-3.29c-2.69-3.39-3-7.56-3.33-11.67A84.69,84.69,0,0,1,24,59.76c.81-5.56,3.21-10.06,8-13.19l1.37-.92a2.89,2.89,0,0,0-.15-.41C27.66,36.32,16.46,37.57,11.48,43a19.65,19.65,0,0,0-3.82,6.59A75.26,75.26,0,0,0,3.6,87,46.8,46.8,0,0,0,9.52,104c3.18,5.36,7.74,8.49,14,9.06,1.08.1,2.16.13,3.34.19-.17-.8-.31-1.3-.38-1.81-.28-2.17-.7-4.34-.76-6.51A3.36,3.36,0,0,1,28,101.52a3.68,3.68,0,0,1,4,1.29,6,6,0,0,1,.73,1c2.81,4.44,1.85,8.95-2.53,11.76,0,.17,0,.36.07.55a170.47,170.47,0,0,1,3,21.45c.6,7.16,1.15,14.33,1.77,21.49q1,11.87,2.1,23.74A15.21,15.21,0,0,0,39.44,189.79ZM34.72,48.1c-4.2,2.45-7,5.75-7.69,10.55-.56,4.19-1.11,8.39-1.35,12.61A40.5,40.5,0,0,0,27,85a9.48,9.48,0,0,0,4,5.36c1.57,1,2.79.77,3.7-.88a11.35,11.35,0,0,0,1.23-3.22c.52-2.86,1-5.74,1.28-8.63a81.5,81.5,0,0,0-.05-21.73A25.42,25.42,0,0,0,34.72,48.1Zm6.16-31.77c.87,7.28,4.54,13,9.53,18,3.68-3.43,7-16.77,5.34-20.66Zm-.21-2.75,14.74-2.67a10.46,10.46,0,0,0-3.65-6.84,5.73,5.73,0,0,0-7.29,0C41.51,6.4,40.88,9.71,40.67,13.58ZM29.41,112.46l.59.18a8.45,8.45,0,0,0,1.29-2.21,6.39,6.39,0,0,0-.86-5A5.86,5.86,0,0,0,29,104.21c-.21.57-.63,1.17-.57,1.71C28.64,108.11,29.06,110.28,29.41,112.46Z"/></g></g></svg>