<svg xmlns="http://www.w3.org/2000/svg" viewBox="0 0 163.34 193.35"><defs><style>.cls-1{fill:#161718;}.cls-2{fill:#181818;}</style></defs><title>logo_tabikana_1</title><g id="レイヤー_2" data-name="レイヤー 2"><g id="ロゴ"><path class="cls-1" d="M12.29,150.3a17.62,17.62,0,0,1-3.57,1.11,41.17,41.17,0,0,1-5.89,13.14,1.18,1.18,0,1,1-2-1.28,40.29,40.29,0,0,0,5.49-11.51,25.17,25.17,0,0,1-4.17,0c-1.49-.12-1.43-2.32,0-2.23a25.77,25.77,0,0,0,4.8,0l.69-3c.8-3.31,3.17-3.45,4.6-2.71C14,144.7,16.17,148.5,12.29,150.3Zm-2.57-3.4c-.12.71-.23,1.26-.43,2.26a11.13,11.13,0,0,0,2.11-.63c2.09-.92.72-2.89.06-3.2C10.4,144.84,9.89,145.73,9.72,146.9Zm11.39,18a14.74,14.74,0,0,1-4.65.12c-3-.37-4.17-1.72-4.34-3.2-.32-2.37,1.57-4.11,3.57-5.37a18.1,18.1,0,0,1,3.2-1.72c.54-.22.71-.62,0-1a3.56,3.56,0,0,0-1.28-.4,13.39,13.39,0,0,0-3.89.17c-1.22.23-1.88-1.82-.4-2.14a13.8,13.8,0,0,1,4.69-.17c2.57.49,3.71,1.89,3.4,3.23-.43,1.66-2.26,1.88-4.77,3.43-.57.34-2.92,1.85-2.43,3.57.31,1.11,1.8,1.25,2.48,1.34a13.72,13.72,0,0,0,4-.14A1.14,1.14,0,1,1,21.11,165Z"/><path class="cls-1" d="M68.19,162a1.27,1.27,0,0,1-2.13,0c-.86-1-2.08-4.88-2.2-6.77l-.06.31a17.08,17.08,0,0,1-3.31,6c-2.72,2.94-7.2,5.28-10.51,3.22-2.4-1.42-4.06-5.08-1.23-11.39A19.94,19.94,0,0,1,50,151c-1.83-.85-2.35-2.88-2.06-4.85a1.17,1.17,0,0,1,2.31.34c-.17,1.06-.34,2.4.92,2.8a14.19,14.19,0,0,1,2.45-2.63c3.86-3,6.77,2.06,2,4.09a7.88,7.88,0,0,1-3.48.6,20.74,20.74,0,0,0-1.43,2.82c-1.2,2.8-2.17,7.06.49,8.63,2.17,1.32,5.79-.88,7.59-2.83,2.92-3.14,4.37-7.77,4.75-12,.11-1.37,2.19-1,2,.28-.26,1.73.2,8.47,1.86,11.35C67.8,160.38,68.61,161.18,68.19,162Zm-14.9-12.41a5.67,5.67,0,0,0,2.4-.83c1.11-.8.51-1.6-.57-.89A8.32,8.32,0,0,0,53.29,149.56ZM68.54,155c-.2-.22-.8-1.22-2-2.74a.78.78,0,0,1,1.23-.94,10.45,10.45,0,0,1,2.14,2.88A.8.8,0,0,1,68.54,155Zm2.4-1.59a20.07,20.07,0,0,0-2-2.55.75.75,0,1,1,1.17-.94,13.89,13.89,0,0,1,2.12,2.46A.84.84,0,1,1,70.94,153.39Z"/><path class="cls-1" d="M106.89,163.27c-2.12,3.2-5.8,1.86-7.26-1.57a4.18,4.18,0,0,1-.28-1.37A41.34,41.34,0,0,1,95,165.1c-.94.91-2.68-.4-1.6-1.52A37.57,37.57,0,0,0,99.26,157a32.42,32.42,0,0,0,2.43-4.06,28.75,28.75,0,0,0-5.2,1.58c-1.29.48-2.26-1.46-.83-2a34.77,34.77,0,0,1,6.94-1.8,28.88,28.88,0,0,0,1.32-6.14c.2-1.55,2.39-1.06,2.25.23a34.66,34.66,0,0,1-1.28,5.68,4,4,0,0,1,3.17,1.4c1,1.37,1,3.53.68,5.23C108.58,158.07,107.82,161.87,106.89,163.27Zm3.64-4.24.87-.07c1.83-.2,3.94-1,3.63-2.83a4.54,4.54,0,0,0-2.43-2.86c-1.23-.63-.17-2.28.94-1.74a6.09,6.09,0,0,1,3.46,4.23c.6,3.22-2.16,4.64-5.45,5l-1,.08C109.16,161,109.14,159.17,110.53,159Zm-4.16-5.85c-.45-.57-1.31-.62-2.28-.59a31.54,31.54,0,0,1-3,5.34,1.91,1.91,0,0,0-.29.88,4.62,4.62,0,0,0,.4,2.17c.74,1.66,2,2.06,2.54,2a1.94,1.94,0,0,0,1.32-.91,12.75,12.75,0,0,0,1.57-5.17C106.77,155.9,107,154,106.37,153.18Z"/><path class="cls-1" d="M143.69,158.7a1.13,1.13,0,1,1-1.83-1.34,23,23,0,0,0,4.51-7.63,14.61,14.61,0,0,1-3.77-.34,1.09,1.09,0,0,1,.38-2.15,16.06,16.06,0,0,0,4,.29c.52-1.83.57-3.37,2.06-4.4,2.83-1.86,5.88,2.06,4.17,4.4-1,1.37-2.69,1.71-4.54,2C147.8,152.7,146.55,155.1,143.69,158.7Zm13.22-4.77a4.11,4.11,0,0,0-.85,3c0,1.28.28,2.39.31,3.65a16.07,16.07,0,0,1,5,3,1.13,1.13,0,0,1-1.46,1.72,14.56,14.56,0,0,0-3.8-2.55,4,4,0,0,1-3.14,3c-5.6,1.29-7.17-5.77-1.57-6.11a8.86,8.86,0,0,1,2.86.31c0-.74-.29-1.85-.26-3a6.15,6.15,0,0,1,1.11-3.92,11.39,11.39,0,0,1-2.65-2.08c-.83-1.12.74-2.6,1.63-1.57a12.65,12.65,0,0,0,2.62,2.22,7.81,7.81,0,0,1,3.69-1.22c3.8-.29,3.94,4.31.29,4.51A9.58,9.58,0,0,1,156.91,153.93Zm-6.85-9.43c-.52.49-.66,1.77-.89,2.89a3.57,3.57,0,0,0,2.66-.95C152.52,145.44,150.92,143.76,150.06,144.5Zm1.46,17.11c-2.4.14-1.58,2.83,1,2.29a2.15,2.15,0,0,0,1.65-2A7.18,7.18,0,0,0,151.52,161.61Zm6.85-9a6.84,6.84,0,0,0,2.09.46c1.31,0,1.14-1.2,0-1A9.37,9.37,0,0,0,158.37,152.61Z"/><path class="cls-1" d="M4.15,184.91v7.86a.51.51,0,0,1-1,0v-7.86H.46a.46.46,0,0,1,0-.92H6.84a.46.46,0,0,1,0,.92Z"/><path class="cls-1" d="M17.35,192.6a.49.49,0,0,1-.31.64.48.48,0,0,1-.65-.3c-.35-1-.91-2.61-.91-2.61h-4s-.58,1.57-.93,2.61a.48.48,0,0,1-.65.31.5.5,0,0,1-.29-.65l2.91-7.8c.16-.45.39-.86.95-.86s.76.37.94.85Zm-3.64-7.38a.21.21,0,0,0-.19-.12.23.23,0,0,0-.2.12l-1.49,4.24h3.35Z"/><path class="cls-1" d="M26.23,188.47c.11,0,.63.22.71.26,1.64.94,1.54,4.42-1.74,4.42h-3a.9.9,0,0,1-.92-.91V184.9a.91.91,0,0,1,.9-.91c1.47,0,2.37,0,3,0a3.16,3.16,0,0,1,1.37.33,2.23,2.23,0,0,1-.41,4ZM24.41,188a2,2,0,0,0,2.16-1.24,1.41,1.41,0,0,0-.57-1.65,2.54,2.54,0,0,0-1.11-.28c-.49,0-1.18,0-2.26,0a.34.34,0,0,0-.36.32V188Zm-2.14,4a.34.34,0,0,0,.36.33c1.26,0,2,0,2.47,0a2.29,2.29,0,0,0,1-.23c1.15-.54,1.38-3.18-1.29-3.18H22.27Z"/><path class="cls-1" d="M34,192.71a.53.53,0,0,1-1.06,0v-8.36a.53.53,0,0,1,1.06,0Z"/><path class="cls-1" d="M46.06,192.47a.48.48,0,0,1-.1.69.46.46,0,0,1-.7-.09L42,188.68l-1.16,1.17,0,.05v2.81a.5.5,0,1,1-1,0v-8.36a.5.5,0,1,1,1,0v4.26L45.06,184a.5.5,0,0,1,.74.68L42.69,188Z"/><path class="cls-1" d="M57.66,192.6a.49.49,0,0,1-.31.64.48.48,0,0,1-.65-.3c-.35-1-.91-2.61-.91-2.61H51.84s-.59,1.57-.93,2.61a.48.48,0,0,1-.65.31.5.5,0,0,1-.29-.65l2.9-7.8c.17-.45.4-.86,1-.86s.76.37.94.85ZM54,185.22a.2.2,0,0,0-.18-.12.22.22,0,0,0-.2.12l-1.49,4.24h3.35Z"/><path class="cls-1" d="M69.78,192.25c0,1.21-1.15,1.21-1.55.55l-4.35-7.23a.17.17,0,0,0-.16-.06.14.14,0,0,0-.09.13v7.13a.49.49,0,1,1-1,0V184.7c0-.82,1-1.27,1.54-.31l4.37,7.24a.13.13,0,0,0,.14.06.12.12,0,0,0,.11-.13v-7.22a.49.49,0,1,1,1,0Z"/><path class="cls-1" d="M82.1,192.6a.49.49,0,0,1-.31.64.48.48,0,0,1-.65-.3c-.35-1-.91-2.61-.91-2.61H76.29s-.59,1.57-.94,2.61a.48.48,0,0,1-.65.31.5.5,0,0,1-.29-.65l2.91-7.8c.16-.45.39-.86,1-.86s.75.37.93.85Zm-3.64-7.38a.21.21,0,0,0-.18-.12.23.23,0,0,0-.21.12l-1.48,4.24h3.34Z"/><path class="cls-1" d="M98.05,186.23a3.29,3.29,0,0,1-.57,2.46,2.74,2.74,0,0,1-2.16,1.08H92.91v3a.5.5,0,0,1-.51.5.5.5,0,0,1-.5-.5v-7.84a.93.93,0,0,1,.92-.93h2.65A2.36,2.36,0,0,1,98,186.06Zm-2.75,2.63A1.92,1.92,0,0,0,97.08,187c0-1.14-.4-2.07-1.63-2.07H93.24a.33.33,0,0,0-.33.33v3.62Z"/><path class="cls-1" d="M108.54,192.53a.49.49,0,1,1-.85.47l-2-3.72h-2.52v3.49a.5.5,0,1,1-1,0v-7.84a.91.91,0,0,1,.91-.93h2.77a2.34,2.34,0,0,1,2.6,2.36,2.79,2.79,0,0,1-1.81,2.76Zm-2.84-4.13a1.88,1.88,0,0,0,1.71-2c0-1-.69-1.43-1.61-1.51h-2.32a.32.32,0,0,0-.34.32v3.15Z"/><path class="cls-1" d="M116.88,193.32c-2.59,0-4.16-1.8-4.16-4.79s1.65-4.77,4.16-4.77,4.13,1.79,4.13,4.79S119.36,193.32,116.88,193.32Zm0-8.66c-1.87,0-3.12,1.6-3.12,3.89s1.18,3.86,3.12,3.86,3.08-1.56,3.08-3.94S118.81,184.66,116.88,184.66Z"/><path class="cls-1" d="M129.55,190.55c0,3.53-4.24,3.48-5.12,1.21a.5.5,0,0,1,.31-.69.52.52,0,0,1,.7.28,1.59,1.59,0,0,0,3.08-.78v-6.24a.52.52,0,0,1,1,0Z"/><path class="cls-1" d="M140.65,184a.45.45,0,0,1,.46.48.44.44,0,0,1-.46.45h-4a.34.34,0,0,0-.33.34v2.83h4.11a.46.46,0,0,1,0,.92h-4.11v2.9a.34.34,0,0,0,.33.34h4.2a.47.47,0,0,1,0,.94h-4.6a.93.93,0,0,1-.92-.93v-7.34a.93.93,0,0,1,.92-.93Z"/><path class="cls-1" d="M151.56,186.34a2.4,2.4,0,0,0-2.4-1.61c-1.82,0-3.06,1.49-3.06,3.85s1.24,3.82,3.06,3.82a2.37,2.37,0,0,0,2.48-1.77c.21-.6,1.23-.28,1,.3a3.37,3.37,0,0,1-3.46,2.4c-2.53,0-4.14-1.75-4.14-4.76s1.62-4.75,4.05-4.75a3.43,3.43,0,0,1,3.58,2.56c.1.45-.68.73-.9.37A2,2,0,0,1,151.56,186.34Z"/><path class="cls-1" d="M160.12,184.91v7.86a.51.51,0,1,1-1,0v-7.86h-2.68a.46.46,0,0,1,0-.92h6.38a.46.46,0,0,1,0,.92Z"/><path class="cls-2" d="M56.37,27.18c2.63-1.52,5.55-2.41,7.77-4.64A26,26,0,0,1,59.86,17a18.22,18.22,0,0,1-2.16-6.73c-.86,0-1.72.11-2.58.13-2.28.05-4.56.08-6.85.11-.56,0-1-.22-1-.85s.35-.84,1-.85l9.14-.15c.2-1.17.32-2.22.57-3.24a7.16,7.16,0,0,1,2.54-4,5.24,5.24,0,0,1,7.56,1.08,21.24,21.24,0,0,1,1.72,3.36c.07.14.1.29.2.57,2.07-.73,4.11-1.42,6.13-2.16,1-.35,1.91-.79,2.86-1.19.68-.28,1.2-.15,1.37.38s-.11,1-.67,1.19L70.29,8.17a26.21,26.21,0,0,1-.57,7.36,17.93,17.93,0,0,1-3.17,6.89c.57.47,1.1,1,1.67,1.39,1.09.82,2.17,1.67,3.33,2.38a11,11,0,0,1,5.09,7.32c.68,3.09,1.27,6.21,2,9.29a39,39,0,0,0,4.3,10.83c.11.2.24.39.4.64A37.89,37.89,0,0,0,86,46.84c1-4,1.93-7.93,3-11.88a19.14,19.14,0,0,1,4-8.09,6.62,6.62,0,0,0,1.55-2.95A8.77,8.77,0,0,1,99,18.13c-.65-1.72-1.43-3.36-1.9-5.09a14.36,14.36,0,0,1,0-8c.78-2.6,2.33-4.51,5.13-4.94a6.77,6.77,0,0,1,6.57,2.77,8.91,8.91,0,0,1,1.78,6.7,14.81,14.81,0,0,1-3.45,8.68c.32.26.61.47.89.71a10.43,10.43,0,0,1,3.5,6.2,1.56,1.56,0,0,0,.62.92,12.12,12.12,0,0,1,5,6.1,64.51,64.51,0,0,1,4,15,58.32,58.32,0,0,1,.25,10.15A100,100,0,0,1,120,68.77a69.83,69.83,0,0,0-.69,11.48,76.74,76.74,0,0,0,.95,9.46,7.23,7.23,0,0,1-.09,2.32,3.77,3.77,0,0,1-3,3.06c-.3.08-.6.14-1,.22,0,.24,0,.49,0,.74a77.19,77.19,0,0,1-.59,13.25c-.31,2-.88,4-1.37,6a4,4,0,0,1-.6,1.19,1.61,1.61,0,0,1-2.88,0,8.92,8.92,0,0,1-1.15-2.63c-.68-3-1.28-6.12-1.85-9.18-.52-2.8-1-5.6-1.46-8.4,0-.16-.09-.32-.16-.55h-5.09c-.08,1.17-.2,2.38-.23,3.59-.12,4.71-.18,9.42-.31,14.12a14.43,14.43,0,0,1-.45,2.92,1.85,1.85,0,0,1-1.55,1.63,1.89,1.89,0,0,1-1.93-1.06,37,37,0,0,1-2.1-4.52A81.18,81.18,0,0,1,90.69,96.7c-.89-6-1.54-12-2.32-18a120.39,120.39,0,0,0-2.7-15.89A40.86,40.86,0,0,0,84,58.37a2.48,2.48,0,0,0-.38-.52C83.05,59.3,82.5,60.63,82,62a63.49,63.49,0,0,0-3.3,17.75c-.26,5.66-.64,11.33-1.14,17a97.18,97.18,0,0,1-2.8,17,17.63,17.63,0,0,1-1.14,3,2,2,0,0,1-1.94,1.4,2.19,2.19,0,0,1-1.82-1.56,11.61,11.61,0,0,1-1-4.37c-.25-6.31-.37-12.62-.76-18.92-.28-4.59-.88-9.17-1.37-13.75a15.13,15.13,0,0,0-.55-2.18,4.31,4.31,0,0,0-.22-.49l-.24,0A25.06,25.06,0,0,0,64.81,80Q64,85.28,63.37,90.64c-.42,3.6-.74,7.2-1.09,10.81-.27,2.88-.47,5.77-.77,8.65-.17,1.7-.43,3.4-.7,5.09a5.41,5.41,0,0,1-.42,1.27,1.87,1.87,0,0,1-1.62,1.38A2.06,2.06,0,0,1,57,116.67a12.8,12.8,0,0,1-1.64-5.92c-.29-3.51-.63-7-.93-10.54-.27-3.12-.5-6.24-.76-9.36-.55-6.44-1-12.9-2.28-19.25a4.66,4.66,0,0,0-.13-.45c-1.45-.2-2.87-.35-4.27-.59a11.09,11.09,0,0,1-7.28-4.82,26.21,26.21,0,0,1-4.25-10.28,46.56,46.56,0,0,1,2.25-25.72,11.5,11.5,0,0,1,4.42-6c3.79-2.47,10.16-2.52,13.67,2.54ZM58.56,116l.29,0c.23-1.16.57-2.31.69-3.48.51-5.08.91-10.17,1.44-15.25q.84-8.1,1.86-16.19A14.07,14.07,0,0,1,64.31,76,1.84,1.84,0,0,1,66,74.76a1.74,1.74,0,0,1,1.56,1.35,19.74,19.74,0,0,1,1,3.66c.49,4.11,1,8.23,1.25,12.36.37,6.43.48,12.89.8,19.33a25.62,25.62,0,0,0,.8,4.12,3.53,3.53,0,0,0,.41.79,10.39,10.39,0,0,0,.73-1.46,37,37,0,0,0,1.26-4.61c.74-4.49,1.5-9,2-13.52s.7-9,1-13.58c.21-2.91.28-5.84.6-8.74a62.26,62.26,0,0,1,4.8-17.68,1.09,1.09,0,0,0-.07-1.15A40,40,0,0,1,77,43.13c-.72-3.06-1.32-6.15-2-9.22a9.5,9.5,0,0,0-4.44-6.34c-1.37-.85-2.63-1.89-3.94-2.86-.4-.3-.78-.64-1.19-1-2.31,2.4-5.44,3.37-8.19,5,1.76,3.66,2,7.51,2.09,11.42a74.73,74.73,0,0,1-.9,11.67,9.92,9.92,0,0,1-1.32,4,3,3,0,0,1-4.34,1.14,7,7,0,0,1-3.06-3.49,16.7,16.7,0,0,1-1.12-5.5,51.76,51.76,0,0,1,.55-11.26,11,11,0,0,1,5.2-8.31c.17-.11.32-.24.48-.36a8.2,8.2,0,0,0-10.42-3.48,8.63,8.63,0,0,0-4.75,5A44.81,44.81,0,0,0,37,54.63a26.42,26.42,0,0,0,3.8,9.71,10.11,10.11,0,0,0,7.9,4.8l2.13.18c0-.3-.08-.46-.1-.62-.21-1.41-.51-2.82-.6-4.24a2.21,2.21,0,0,1,1.35-2.29,2.09,2.09,0,0,1,2.28.48A4.92,4.92,0,0,1,53,70.6s0,.08-.06.12c.64,3.65,1.24,7.32,1.63,11,.49,4.72.79,9.47,1.19,14.2q.68,8,1.41,16A9,9,0,0,0,58.56,116ZM110,32.11c-.34.47-.54.75-.76,1a8.54,8.54,0,0,1-4.16,3.24,2,2,0,0,1-2.8-2A6.74,6.74,0,0,1,104,29.67a3.44,3.44,0,0,1,3.6-1c.62.16,1.21.45,1.94.72.15-.78.32-1.53.42-2.28a.74.74,0,0,0-.32-.54l-7-4.55c-2,1.27-4.15,2.63-6.31,4a1.11,1.11,0,0,0-.57,1.23q.42,2.89.83,5.79c.06.4.26.56.64.71a9.07,9.07,0,0,1,2.15,1,1.44,1.44,0,0,1,0,2.41A2.06,2.06,0,0,1,96,36.43c-.48-1-.88-1.79-2.17-1.73-.48,0-.76-.45-.67-1a.84.84,0,0,1,1-.69l.67,0-.77-5a14.21,14.21,0,0,0-2.18,3.71,60.12,60.12,0,0,0-2.81,9.58c-1.15,4.87-2.24,9.75-4.49,14.28a.85.85,0,0,0,.13.73A13.33,13.33,0,0,1,87,61a59.57,59.57,0,0,1,1.53,6.57q1.32,9,2.4,18a164.68,164.68,0,0,0,2.87,17.81,59.69,59.69,0,0,0,3.37,11,16.52,16.52,0,0,0,1,1.73l.19,0a4.65,4.65,0,0,0,.25-.86c.11-1.28.24-2.57.28-3.86.16-4.9.28-9.79.42-14.68,0-.37,0-.73,0-1.09-3.17-.29-4.51-1.4-5.25-4.44a22.65,22.65,0,0,1-.52-3.48,33.17,33.17,0,0,1,2.05-13.92c1.3-3.71,4.33-5.2,8.08-4A16.32,16.32,0,0,1,111.47,76c2.66,3.55,3.54,7.68,4,11.94.21,1.87.4,3.74.6,5.61,1.54-.23,2.25-.81,2.36-2.08a12.09,12.09,0,0,0,0-2.33c-.27-2.54-.7-5.08-.86-7.63a66.54,66.54,0,0,1,.7-13.3c.37-2.58.9-5.14,1.21-7.73a51.5,51.5,0,0,0-.31-15.33,61.42,61.42,0,0,0-4-13.26,8.5,8.5,0,0,0-3.46-4c-.24.77-.44,1.52-.72,2.23a.87.87,0,0,0,.1.88,13.32,13.32,0,0,1,1.33,2.84,3.87,3.87,0,0,1-2.64,4.56.84.84,0,0,1-1.13-.45.82.82,0,0,1,.42-1.13c.3-.18.64-.32.91-.52a1.9,1.9,0,0,0,.77-2.12C110.6,33.53,110.3,32.92,110,32.11Zm4.32,61.68a56.5,56.5,0,0,0-1.39-10.63,16.68,16.68,0,0,0-8.87-11.35c-3.4-1.72-5.87-.56-7.08,3a31.47,31.47,0,0,0-1.67,13.74,8.77,8.77,0,0,0,1.07,3.91,2.76,2.76,0,0,0,3,1.27c0-.32.09-.64.12-1,.38-4.62.72-9.24,1.18-13.85a13,13,0,0,1,1-3.65,1.31,1.31,0,0,1,2.47,0,6.69,6.69,0,0,1,.73,2c.56,3.17,1,6.35,1.57,9.52.39,2.36.78,4.72,1.17,7ZM55.67,29.57c-2.41,1.42-4.15,3.31-4.6,6.13-.31,1.94-.62,3.89-.77,5.86a35,35,0,0,0,.35,9.2,6.58,6.58,0,0,0,2.7,4.53c1,.68,1.79.54,2.32-.56a10,10,0,0,0,.9-2.72,62.42,62.42,0,0,0,.86-15.38A18.74,18.74,0,0,0,55.67,29.57ZM100.9,17.34a19.8,19.8,0,0,1,2.08-.21,9.76,9.76,0,0,1,2,.22.86.86,0,0,0,1-.31,13.11,13.11,0,0,0,2.92-7.42,7.78,7.78,0,0,0-1-5.09,5.67,5.67,0,0,0-4.27-2.79c-2.1-.28-4.08,1.19-4.82,3.62a14.17,14.17,0,0,0-.22,6.57A12.52,12.52,0,0,0,100.9,17.34ZM108,95.69a4.42,4.42,0,0,0,0,.52c1,5.4,1.94,10.81,3,16.21a23.06,23.06,0,0,0,1,3.07l.35,0c2.23-6.47,2.18-13.19,2.07-20ZM65.3,21.24c2.76-3.86,3.45-8.17,3.29-12.71l-9.15,1.61C59.94,14.55,62.18,18.05,65.3,21.24Zm35.85,72.62h4.76c-1.1-5.68-1.72-11.36-3-16.93C101.89,82.51,101.75,88.16,101.15,93.86ZM68.3,6.83a6.71,6.71,0,0,0-2.09-4,3.55,3.55,0,0,0-4.38-.31,6.4,6.4,0,0,0-2.34,5.85Zm40.34,24.24c-1.12-.94-2.42-1.13-3.2-.37a5.34,5.34,0,0,0-1.4,4.19C106.26,34.31,107.41,32.69,108.64,31.07Zm.81-6.63.16-.13A8.28,8.28,0,0,0,106,19.57L104.31,21Zm-13.12-.59,5.2-3.1c-.37-.4-.65-.74-1-1a.52.52,0,0,0-.47-.14A7.09,7.09,0,0,0,96.33,23.85ZM52.1,63.62c-.7,1.91.24,3.52.4,5.22a1.79,1.79,0,0,0,1.15-2A3.44,3.44,0,0,0,52.1,63.62Zm51.78-44.57v-.23l-1.75.08.88.83Z"/></g></g></svg>