<svg xmlns="http://www.w3.org/2000/svg" viewBox="0 0 256.66 92.56"><defs><style>.cls-1{fill:#161718;}.cls-2{fill:#171717;}</style></defs><title>logo_tabikana_horizon_2</title><g id="レイヤー_2" data-name="レイヤー 2"><g id="ロゴ"><path class="cls-1" d="M97.56,63.28v7.86a.51.51,0,1,1-1,0V63.28H93.86a.46.46,0,0,1,0-.92h6.38a.46.46,0,0,1,0,.92Z"/><path class="cls-1" d="M110.75,71a.49.49,0,0,1-.31.64.48.48,0,0,1-.65-.3c-.34-1-.91-2.6-.91-2.6h-3.94s-.59,1.57-.94,2.6a.48.48,0,0,1-.65.31.5.5,0,0,1-.28-.65l2.9-7.79c.17-.46.39-.87,1-.87s.75.37.93.85Zm-3.64-7.37a.19.19,0,0,0-.18-.12.21.21,0,0,0-.21.12l-1.48,4.23h3.34Z"/><path class="cls-1" d="M119.63,66.85c.11,0,.63.21.71.25,1.65.94,1.54,4.42-1.74,4.42h-3a.9.9,0,0,1-.91-.91V63.27a.91.91,0,0,1,.9-.91c1.46,0,2.36,0,3,0a3.31,3.31,0,0,1,1.37.33,2.24,2.24,0,0,1-.41,4Zm-1.82-.46c1.29,0,2-.58,2.16-1.24a1.42,1.42,0,0,0-.56-1.65,2.55,2.55,0,0,0-1.12-.28c-.49,0-1.17,0-2.25,0a.34.34,0,0,0-.36.33v2.85Zm-2.13,4a.33.33,0,0,0,.36.33c1.26,0,2,0,2.47,0a2.24,2.24,0,0,0,1-.23c1.15-.54,1.38-3.17-1.28-3.17h-2.58Z"/><path class="cls-1" d="M127.44,71.08a.54.54,0,0,1-1.07,0V62.72a.54.54,0,0,1,1.07,0Z"/><path class="cls-1" d="M139.46,70.84a.48.48,0,0,1-.1.7.46.46,0,0,1-.69-.1l-3.24-4.39-1.15,1.17,0,0v2.81a.5.5,0,1,1-1,0V62.72a.5.5,0,1,1,1,0V67l4.22-4.57a.51.51,0,0,1,.75.68l-3.12,3.25Z"/><path class="cls-1" d="M151.06,71a.49.49,0,0,1-.31.64.48.48,0,0,1-.65-.3c-.35-1-.91-2.6-.91-2.6h-3.95s-.58,1.57-.93,2.6a.48.48,0,0,1-.65.31.5.5,0,0,1-.29-.65l2.91-7.79c.16-.46.39-.87,1-.87s.75.37.93.85Zm-3.64-7.37a.19.19,0,0,0-.18-.12.21.21,0,0,0-.21.12l-1.49,4.23h3.35Z"/><path class="cls-1" d="M163.18,70.62c0,1.21-1.15,1.21-1.55.56l-4.35-7.24a.19.19,0,0,0-.15-.06.16.16,0,0,0-.1.14v7.12a.49.49,0,1,1-1,0V63.07c0-.82,1-1.27,1.53-.31L162,70a.13.13,0,0,0,.14.06.12.12,0,0,0,.11-.13V62.71a.49.49,0,1,1,1,0Z"/><path class="cls-1" d="M175.51,71a.5.5,0,0,1-.32.64.47.47,0,0,1-.64-.3c-.35-1-.92-2.6-.92-2.6h-3.94s-.59,1.57-.94,2.6a.47.47,0,0,1-.64.31.49.49,0,0,1-.29-.65l2.9-7.79c.17-.46.4-.87,1-.87s.76.37.93.85Zm-3.65-7.37a.18.18,0,0,0-.18-.12.19.19,0,0,0-.2.12L170,67.83h3.34Z"/><path class="cls-1" d="M191.45,64.6a3.25,3.25,0,0,1-.57,2.46,2.74,2.74,0,0,1-2.16,1.08h-2.41v3a.51.51,0,0,1-1,0V63.3a.93.93,0,0,1,.93-.93h2.65a2.36,2.36,0,0,1,2.55,2.07Zm-2.74,2.63a1.9,1.9,0,0,0,1.77-1.88c.05-1.14-.39-2.07-1.63-2.07h-2.2a.34.34,0,0,0-.34.33v3.62Z"/><path class="cls-1" d="M201.94,70.9a.46.46,0,0,1-.18.66.47.47,0,0,1-.67-.19l-2-3.72h-2.52v3.49a.5.5,0,1,1-1,0V63.3a.92.92,0,0,1,.91-.93h2.77a2.35,2.35,0,0,1,2.6,2.37A2.77,2.77,0,0,1,200,67.49Zm-2.84-4.13a1.88,1.88,0,0,0,1.71-2c0-1-.69-1.43-1.6-1.51h-2.33a.32.32,0,0,0-.34.32v3.15Z"/><path class="cls-1" d="M210.28,71.69c-2.59,0-4.16-1.8-4.16-4.78s1.66-4.78,4.16-4.78,4.13,1.79,4.13,4.79S212.77,71.69,210.28,71.69Zm0-8.66c-1.87,0-3.11,1.6-3.11,3.89s1.17,3.86,3.11,3.86,3.09-1.56,3.09-3.93S212.21,63,210.28,63Z"/><path class="cls-1" d="M223,68.92c0,3.53-4.24,3.48-5.12,1.21a.5.5,0,0,1,.32-.69.52.52,0,0,1,.69.28,1.59,1.59,0,0,0,3.08-.78V62.7a.52.52,0,0,1,1,0Z"/><path class="cls-1" d="M234.05,62.35a.44.44,0,0,1,.46.48.43.43,0,0,1-.46.45h-4a.33.33,0,0,0-.32.34v2.83h4.1a.46.46,0,0,1,0,.92h-4.1v2.91a.32.32,0,0,0,.32.33h4.2a.47.47,0,0,1,0,.94h-4.59a.93.93,0,0,1-.93-.93V63.28a.93.93,0,0,1,.93-.93Z"/><path class="cls-1" d="M245,64.71a2.39,2.39,0,0,0-2.4-1.61c-1.82,0-3.05,1.49-3.05,3.85s1.23,3.82,3.05,3.82A2.38,2.38,0,0,0,245.05,69c.2-.59,1.22-.28,1,.3a3.39,3.39,0,0,1-3.47,2.4c-2.53,0-4.14-1.75-4.14-4.76,0-2.86,1.62-4.75,4.06-4.75a3.34,3.34,0,0,1,3.33,1.91,2.8,2.8,0,0,1,.24.65c.11.45-.67.73-.9.37A2,2,0,0,1,245,64.71Z"/><path class="cls-1" d="M253.52,63.28v7.86a.51.51,0,1,1-1,0V63.28h-2.68a.46.46,0,0,1,0-.92h6.39a.46.46,0,0,1,0,.92Z"/><path class="cls-1" d="M104.84,29.48a17.62,17.62,0,0,1-3.57,1.11,41.27,41.27,0,0,1-5.89,13.14,1.18,1.18,0,1,1-2-1.29A40.29,40.29,0,0,0,98.9,30.93a23.13,23.13,0,0,1-4.17,0c-1.49-.11-1.43-2.31,0-2.22a25.77,25.77,0,0,0,4.8,0l.69-3c.8-3.32,3.17-3.46,4.6-2.72C106.55,23.88,108.72,27.68,104.84,29.48Zm-2.57-3.4c-.12.71-.23,1.25-.43,2.25A11.13,11.13,0,0,0,104,27.7c2.09-.91.72-2.88.06-3.19C103,24,102.44,24.91,102.27,26.08Zm11.39,18.05a15,15,0,0,1-4.65.11c-3-.37-4.17-1.71-4.34-3.2-.32-2.37,1.57-4.11,3.57-5.37a17,17,0,0,1,3.2-1.71c.54-.23.71-.63,0-1a3.56,3.56,0,0,0-1.28-.4,13.39,13.39,0,0,0-3.89.17c-1.22.23-1.88-1.83-.4-2.14a13.27,13.27,0,0,1,4.69-.17c2.57.48,3.71,1.88,3.4,3.22-.43,1.66-2.26,1.89-4.77,3.43-.57.35-2.92,1.86-2.43,3.57.31,1.12,1.8,1.26,2.48,1.35a13.39,13.39,0,0,0,4-.15A1.15,1.15,0,1,1,113.66,44.13Z"/><path class="cls-1" d="M160.74,41.15c-.39.7-1.61.53-2.13,0-.9-1-2.08-4.88-2.2-6.78l-.06.32a17,17,0,0,1-3.31,6c-2.72,2.95-7.2,5.29-10.51,3.23-2.4-1.43-4.06-5.08-1.23-11.4a19,19,0,0,1,1.23-2.31c-1.83-.86-2.35-2.88-2.06-4.86a1.17,1.17,0,1,1,2.31.35c-.17,1.05-.34,2.4.92,2.8a13.89,13.89,0,0,1,2.45-2.63c3.86-3,6.77,2.06,2,4.08a7.74,7.74,0,0,1-3.48.6,21.45,21.45,0,0,0-1.43,2.83c-1.2,2.8-2.17,7.06.49,8.63,2.17,1.31,5.79-.89,7.59-2.83,2.92-3.14,4.37-7.77,4.75-12,.11-1.37,2.19-1,2,.29-.26,1.73.2,8.47,1.86,11.35C160.35,39.56,161.16,40.36,160.74,41.15Zm-14.9-12.42a5.55,5.55,0,0,0,2.4-.82c1.11-.8.51-1.6-.57-.89A8.26,8.26,0,0,0,145.84,28.73Zm15.25,5.43c-.2-.23-.8-1.23-2-2.74a.78.78,0,0,1,1.23-.94,10.45,10.45,0,0,1,2.14,2.88A.8.8,0,0,1,161.09,34.16Zm2.4-1.6a20.45,20.45,0,0,0-2-2.54.75.75,0,1,1,1.17-.94,14.14,14.14,0,0,1,2.12,2.45A.84.84,0,1,1,163.49,32.56Z"/><path class="cls-1" d="M199.44,42.44c-2.12,3.2-5.8,1.86-7.26-1.57a4.08,4.08,0,0,1-.28-1.37,41.34,41.34,0,0,1-4.35,4.77c-.94.92-2.68-.4-1.6-1.51a38,38,0,0,0,5.86-6.54,33.17,33.17,0,0,0,2.43-4.06,28.92,28.92,0,0,0-5.2,1.57,1.1,1.1,0,0,1-.83-2,35.79,35.79,0,0,1,6.94-1.79,29,29,0,0,0,1.32-6.15c.2-1.54,2.39-1.05,2.25.23a34.78,34.78,0,0,1-1.28,5.69,3.91,3.91,0,0,1,3.17,1.4c1,1.37,1,3.52.68,5.22C201.13,37.25,200.37,41,199.44,42.44Zm3.64-4.23c.42-.05.65-.05.87-.08,1.83-.19,3.94-1,3.63-2.83a4.52,4.52,0,0,0-2.43-2.85c-1.23-.63-.17-2.29.94-1.75a6.11,6.11,0,0,1,3.46,4.23c.6,3.23-2.16,4.65-5.45,5l-1,.08C201.71,40.18,201.69,38.34,203.08,38.21Zm-4.16-5.85c-.45-.57-1.31-.63-2.28-.6a30.75,30.75,0,0,1-3,5.34,2,2,0,0,0-.29.89,4.64,4.64,0,0,0,.4,2.17c.74,1.66,2,2.06,2.54,2a2,2,0,0,0,1.32-.92,12.66,12.66,0,0,0,1.57-5.17C199.32,35.07,199.55,33.16,198.92,32.36Z"/><path class="cls-1" d="M236.24,37.87a1.13,1.13,0,1,1-1.83-1.34,22.8,22.8,0,0,0,4.51-7.62,14.44,14.44,0,0,1-3.77-.35,1.09,1.09,0,0,1,.38-2.14,16.54,16.54,0,0,0,4,.29c.52-1.83.57-3.38,2.06-4.4,2.83-1.86,5.88,2.05,4.17,4.4-1,1.37-2.69,1.71-4.54,2A23.72,23.72,0,0,1,236.24,37.87Zm13.22-4.77a4.13,4.13,0,0,0-.85,3c0,1.29.28,2.4.31,3.66a15.87,15.87,0,0,1,5,3,1.12,1.12,0,0,1-1.46,1.71,14.59,14.59,0,0,0-3.8-2.54,4,4,0,0,1-3.14,3c-5.6,1.28-7.17-5.77-1.57-6.11a8.59,8.59,0,0,1,2.86.31c0-.74-.29-1.86-.26-3a6.14,6.14,0,0,1,1.11-3.91A11.45,11.45,0,0,1,245,30.13c-.83-1.11.74-2.6,1.63-1.57a12.3,12.3,0,0,0,2.62,2.23A8,8,0,0,1,253,29.56c3.8-.28,3.94,4.31.29,4.51A9.41,9.41,0,0,1,249.46,33.1Zm-6.85-9.42c-.52.48-.66,1.77-.89,2.88a3.56,3.56,0,0,0,2.66-.94C245.07,24.62,243.47,22.93,242.61,23.68Zm1.46,17.11c-2.4.14-1.58,2.83,1,2.28a2.12,2.12,0,0,0,1.65-1.94A7.18,7.18,0,0,0,244.07,40.79Zm6.85-9a6.84,6.84,0,0,0,2.09.46c1.31,0,1.14-1.2,0-1A9.37,9.37,0,0,0,250.92,31.79Z"/><path class="cls-2" d="M17.13,21.32c2.06-1.19,4.35-1.9,6.09-3.64a20.39,20.39,0,0,1-3.36-4.39A14.49,14.49,0,0,1,18.17,8c-.67,0-1.35.09-2,.1-1.79,0-3.58.06-5.37.08-.44,0-.76-.17-.79-.66s.28-.66.82-.67L18,6.75c.16-.92.25-1.74.45-2.53a5.63,5.63,0,0,1,2-3.18,4.12,4.12,0,0,1,5.93.85A16.3,16.3,0,0,1,27.7,4.52c.06.11.08.24.16.45,1.62-.57,3.22-1.11,4.81-1.69.76-.28,1.49-.62,2.24-.93.54-.22.94-.12,1.08.29s-.09.77-.53.94L28.05,6.41a20.4,20.4,0,0,1-.45,5.77,14.3,14.3,0,0,1-2.48,5.41c.44.37.85.75,1.3,1.09.86.64,1.71,1.3,2.61,1.86a8.61,8.61,0,0,1,4,5.74c.53,2.43,1,4.87,1.57,7.29A30.4,30.4,0,0,0,38,42.07c.09.15.2.3.32.49a29.52,29.52,0,0,0,2.07-5.82c.8-3.1,1.52-6.23,2.35-9.32a15,15,0,0,1,3.12-6.34A5.2,5.2,0,0,0,47,18.76a6.85,6.85,0,0,1,3.55-4.54c-.51-1.35-1.12-2.64-1.49-4a11.22,11.22,0,0,1,0-6.29,4.92,4.92,0,0,1,4-3.87A5.3,5.3,0,0,1,58.3,2.24,7.07,7.07,0,0,1,59.7,7.5,11.67,11.67,0,0,1,57,14.31c.25.2.48.37.69.55a8.21,8.21,0,0,1,2.76,4.86,1.17,1.17,0,0,0,.48.73,9.51,9.51,0,0,1,3.93,4.79A51,51,0,0,1,68,37a47,47,0,0,1,.2,8,79.75,79.75,0,0,1-1.23,9,56.36,56.36,0,0,0-.54,9,61.51,61.51,0,0,0,.75,7.43,5.51,5.51,0,0,1-.07,1.81,3,3,0,0,1-2.32,2.41l-.76.17v.58a59.15,59.15,0,0,1-.46,10.39c-.24,1.57-.69,3.12-1.07,4.67a3,3,0,0,1-.48.93,1.25,1.25,0,0,1-2.25,0,6.68,6.68,0,0,1-.9-2.07c-.54-2.38-1-4.79-1.46-7.2-.41-2.19-.76-4.39-1.14-6.58a4.26,4.26,0,0,0-.12-.43h-4c-.06.92-.16,1.87-.18,2.82-.09,3.69-.14,7.38-.24,11.07a11.13,11.13,0,0,1-.35,2.29,1.43,1.43,0,0,1-2.73.44A27.72,27.72,0,0,1,47,88.12a63.93,63.93,0,0,1-3-12.28c-.7-4.68-1.21-9.4-1.82-14.09a95.23,95.23,0,0,0-2.12-12.47,32.24,32.24,0,0,0-1.33-3.5,3,3,0,0,0-.3-.41c-.43,1.14-.86,2.19-1.22,3.25a50,50,0,0,0-2.6,13.92c-.2,4.44-.5,8.89-.89,13.32a76.78,76.78,0,0,1-2.19,13.29,14.74,14.74,0,0,1-.9,2.31,1.57,1.57,0,0,1-1.52,1.1,1.7,1.7,0,0,1-1.43-1.23A9.23,9.23,0,0,1,27,87.9c-.19-4.94-.29-9.89-.59-14.83-.22-3.61-.7-7.19-1.09-10.79a10.44,10.44,0,0,0-.43-1.71,2.11,2.11,0,0,0-.17-.38l-.18,0a18,18,0,0,0-.74,2.55c-.43,2.78-.8,5.58-1.13,8.38s-.58,5.65-.85,8.48c-.22,2.26-.38,4.53-.61,6.78-.13,1.34-.34,2.67-.55,4a4,4,0,0,1-.33,1A1.47,1.47,0,0,1,19,92.42a1.59,1.59,0,0,1-1.42-.91,10.06,10.06,0,0,1-1.28-4.64c-.23-2.76-.5-5.52-.74-8.27-.21-2.45-.39-4.9-.59-7.34a123.41,123.41,0,0,0-1.79-15.1,2.83,2.83,0,0,0-.1-.35c-1.14-.16-2.25-.28-3.35-.47A8.71,8.71,0,0,1,4,51.56,20.49,20.49,0,0,1,.7,43.5,36.54,36.54,0,0,1,2.46,23.33a9,9,0,0,1,3.47-4.68,7.86,7.86,0,0,1,10.72,2ZM18.84,91l.23,0c.19-.91.45-1.81.55-2.73.4-4,.71-8,1.12-12,.44-4.24.94-8.47,1.46-12.7a11.13,11.13,0,0,1,1.15-4c.3-.55.67-1,1.37-1a1.33,1.33,0,0,1,1.21,1.06,15.19,15.19,0,0,1,.76,2.87c.38,3.22.79,6.45,1,9.69.29,5,.38,10.11.62,15.16a21.55,21.55,0,0,0,.63,3.24,2.94,2.94,0,0,0,.33.61,8.6,8.6,0,0,0,.57-1.14,29.3,29.3,0,0,0,1-3.61C31.39,83,32,79.46,32.37,75.91s.54-7.1.79-10.66c.16-2.28.22-4.57.47-6.84a48.77,48.77,0,0,1,3.76-13.87.82.82,0,0,0,0-.9,31.52,31.52,0,0,1-4.07-9.81c-.56-2.4-1-4.82-1.56-7.23a7.4,7.4,0,0,0-3.48-5c-1.08-.67-2.07-1.49-3.09-2.25-.32-.23-.61-.5-.94-.77-1.81,1.88-4.26,2.64-6.42,3.91a20.59,20.59,0,0,1,1.64,9,58.38,58.38,0,0,1-.71,9.15,7.59,7.59,0,0,1-1,3.13,2.38,2.38,0,0,1-3.39.89,5.46,5.46,0,0,1-2.41-2.74A13.25,13.25,0,0,1,11,37.6a40.79,40.79,0,0,1,.44-8.83,8.64,8.64,0,0,1,4.07-6.52,3.73,3.73,0,0,0,.38-.28,6.42,6.42,0,0,0-8.17-2.73A6.72,6.72,0,0,0,4,23.2,35,35,0,0,0,1.94,42.85a20.78,20.78,0,0,0,3,7.62,7.93,7.93,0,0,0,6.19,3.76l1.67.14c0-.23-.06-.36-.08-.48-.16-1.11-.4-2.22-.46-3.33a1.73,1.73,0,0,1,1-1.8,1.64,1.64,0,0,1,1.79.38,3.86,3.86,0,0,1-.59,6.23.16.16,0,0,0-.05.1c.5,2.86,1,5.74,1.27,8.63.39,3.71.62,7.43.94,11.15.36,4.17.72,8.34,1.11,12.51A7.09,7.09,0,0,0,18.84,91ZM59.19,25.19c-.27.36-.42.59-.59.8a6.67,6.67,0,0,1-3.27,2.54A1.54,1.54,0,0,1,53.14,27a5.32,5.32,0,0,1,1.36-3.71,2.71,2.71,0,0,1,2.83-.79c.49.13,1,.35,1.52.56.11-.61.25-1.19.33-1.79a.6.6,0,0,0-.26-.42c-1.78-1.18-3.57-2.34-5.45-3.57-1.58,1-3.26,2.06-4.95,3.11a.87.87,0,0,0-.45,1c.22,1.51.44,3,.65,4.53a.65.65,0,0,0,.51.56,6.86,6.86,0,0,1,1.68.81,1.13,1.13,0,0,1,0,1.89,1.62,1.62,0,0,1-2.7-.56c-.37-.76-.68-1.4-1.7-1.35-.37,0-.6-.36-.52-.77a.64.64,0,0,1,.77-.54l.53,0-.61-3.89A11.18,11.18,0,0,0,45,25a47,47,0,0,0-2.21,7.52,51.14,51.14,0,0,1-3.52,11.2.63.63,0,0,0,.1.57,10.55,10.55,0,0,1,1.74,3.62A46.4,46.4,0,0,1,42.31,53q1,7,1.88,14.09a133.9,133.9,0,0,0,2.25,14,47.26,47.26,0,0,0,2.65,8.65,15.38,15.38,0,0,0,.78,1.36l.16,0a3.93,3.93,0,0,0,.19-.67c.09-1,.19-2,.22-3,.12-3.84.22-7.68.33-11.52V75c-2.49-.23-3.54-1.1-4.12-3.49a16.8,16.8,0,0,1-.4-2.73,25.89,25.89,0,0,1,1.6-10.92,4.65,4.65,0,0,1,6.33-3.11,12.78,12.78,0,0,1,6.17,4.85c2.08,2.78,2.77,6,3.16,9.36.16,1.47.31,2.93.47,4.4,1.21-.18,1.76-.63,1.85-1.63a10.06,10.06,0,0,0,0-1.82c-.21-2-.55-4-.67-6a52.13,52.13,0,0,1,.55-10.44c.29-2,.7-4,.94-6.06a40,40,0,0,0-.24-12A47.94,47.94,0,0,0,63.26,25a6.63,6.63,0,0,0-2.71-3.12c-.19.61-.35,1.19-.57,1.76a.72.72,0,0,0,.08.69,10.47,10.47,0,0,1,1,2.22A3,3,0,0,1,59,30.12a.66.66,0,0,1-.88-.35.65.65,0,0,1,.33-.89c.24-.14.5-.25.72-.41a1.51,1.51,0,0,0,.6-1.66A16.41,16.41,0,0,0,59.19,25.19Zm3.39,48.37a44.24,44.24,0,0,0-1.09-8.33,13.08,13.08,0,0,0-7-8.91c-2.67-1.35-4.6-.44-5.55,2.39a24.83,24.83,0,0,0-1.31,10.78,6.84,6.84,0,0,0,.84,3.06,2.16,2.16,0,0,0,2.38,1c0-.25.07-.51.1-.76.3-3.63.56-7.25.92-10.87a10.61,10.61,0,0,1,.76-2.86,1,1,0,0,1,1.94,0,5.12,5.12,0,0,1,.57,1.54c.44,2.49.83,5,1.24,7.47.3,1.85.61,3.7.91,5.5Zm-46-50.37A6.77,6.77,0,0,0,13,28c-.24,1.52-.49,3.06-.6,4.59a27.8,27.8,0,0,0,.27,7.23,5.16,5.16,0,0,0,2.12,3.55c.8.53,1.4.42,1.82-.44a8.09,8.09,0,0,0,.71-2.13A49.33,49.33,0,0,0,18,28.73,14.87,14.87,0,0,0,16.58,23.19ZM52.05,13.6c.58-.06,1.11-.16,1.64-.16a7.64,7.64,0,0,1,1.58.17.66.66,0,0,0,.76-.25,10.3,10.3,0,0,0,2.29-5.81,6.11,6.11,0,0,0-.74-4,4.46,4.46,0,0,0-3.35-2.19,3.61,3.61,0,0,0-3.78,2.85,11,11,0,0,0-.18,5.14A10,10,0,0,0,52.05,13.6Zm5.6,61.46a2.62,2.62,0,0,0,0,.4c.77,4.24,1.52,8.48,2.33,12.72a19.35,19.35,0,0,0,.81,2.4l.28,0c1.75-5.08,1.71-10.35,1.62-15.67ZM24.13,16.66a15.49,15.49,0,0,0,2.58-10L19.53,8A14.78,14.78,0,0,0,24.13,16.66Zm28.12,57H56c-.87-4.45-1.35-8.9-2.35-13.27C52.83,64.72,52.72,69.14,52.25,73.61ZM26.49,5.36a5.2,5.2,0,0,0-1.65-3.12A2.78,2.78,0,0,0,21.41,2a5,5,0,0,0-1.83,4.59Zm31.64,19c-.88-.74-1.9-.89-2.52-.29a4.23,4.23,0,0,0-1.09,3.28C56.26,26.91,57.16,25.64,58.13,24.37Zm.63-5.2.12-.1A6.46,6.46,0,0,0,56,15.35l-1.28,1.09ZM48.47,18.7l4.08-2.43c-.29-.31-.51-.58-.77-.81-.09-.08-.28-.16-.37-.11A5.58,5.58,0,0,0,48.47,18.7ZM13.78,49.9c-.55,1.5.19,2.76.32,4.1A1.41,1.41,0,0,0,15,52.41,2.7,2.7,0,0,0,13.78,49.9Zm40.61-35v-.18L53,14.82l.69.65Z"/></g></g></svg>