<svg xmlns="http://www.w3.org/2000/svg" viewBox="0 0 275.05 83.94"><defs><style>.cls-1{fill:#231815;}.cls-2{fill:#161718;}</style></defs><title>mv_copy</title><g id="レイヤー_2" data-name="レイヤー 2"><g id="ロゴ"><path class="cls-1" d="M34.92,15.26c4.09,0,3.9,6.22-.09,6.22H20.06c0,3.16-.19,7-.38,10.87h9c3.25,0,6.22,1.49,6.22,6.23,0,8.64.19,29.54-7,40.6a3.3,3.3,0,0,1-5.57-.09c-1.86-2.42-4.09-3.44-7.43-3.44-2.88,0-2.79-4.28,0-4.28a13.84,13.84,0,0,1,8.45,2.51c4.55-8.64,4.93-24.34,4.93-34.56a.79.79,0,0,0-.84-.84H19.13C17.83,51.21,15,65.8,8.35,77.13c-1.77,3.16-3.81,6.42-7,4.19a3.19,3.19,0,0,1-.74-4.56c4.64-7,12.54-23,12.82-55.28h-7c-4.09,0-4.27-6.22-.28-6.22h12V4.76c0-4.09,6.5-4.09,6.5,0v10.5Zm43.85-2.7c4.09,0,4,6.23-.09,6.23h-28a61.09,61.09,0,0,1-6.79,9.1c-2.69,2.88-5.2,6.23-8.08,3.35a3.13,3.13,0,0,1,0-4.55c7.06-6.88,12.08-14,14.49-22.49a3.21,3.21,0,0,1,4.09-2.32c4.65,1.3,1.86,6.5-.18,10.68ZM47.37,42.94c-3.71,1.77-7.52,4-9,.47A2.88,2.88,0,0,1,40,39.51C59.17,31.33,67.9,22.13,68,22a3,3,0,0,1,4.36-.28c2.79,2.6-.18,5-2.78,7.25a53.91,53.91,0,0,1-5.67,4.36,75.07,75.07,0,0,0,2.23,11.15,69.39,69.39,0,0,0,11.15-8.26c1.67-1.49,3.34-1.21,4.27-.1,2.32,2.7-.56,4.93-3.44,7.16A82.44,82.44,0,0,1,67.63,50C71.06,60.23,76,68.49,84.16,75.56c2,1.76,1.86,3.9.47,5.2-2.79,2.79-5.76-.19-8.46-3C66.23,67.47,60.1,52,58.06,37.28l-4,2.32V79.18c0,4.09-6.69,4.09-6.69,0Z"/><path class="cls-1" d="M219.34,59.78c0,4.09-5.81,5-6.86,1.14h-11.9c-1,4.09-7.24,3.33-7.24-1V14.55c0-5.24,3-7.34,7-7.34h12.18c3.62,0,6.77,2.48,6.77,7.14Zm-7-45.14a.81.81,0,0,0-.86-.86h-10.1a.8.8,0,0,0-.85.86v39.8h11.81Zm39.32,23.14V80.44c0,4.66-7.52,4.66-7.52,0V37.78H225.91c-4.57,0-4.77-6.86-.1-6.86h18.38V3.5c0-4.67,7.52-4.67,7.52,0V30.92h19.81c4.57,0,4.85,6.86,0,6.86Z"/><path class="cls-2" d="M117.66,23a11.52,11.52,0,0,1-2.33.73,26.88,26.88,0,0,1-3.83,8.57.77.77,0,1,1-1.29-.84A26.23,26.23,0,0,0,113.79,24a15.74,15.74,0,0,1-2.72,0c-1-.07-.93-1.51,0-1.45a17.05,17.05,0,0,0,3.13,0l.44-2c.53-2.16,2.07-2.25,3-1.77C118.78,19.35,120.2,21.83,117.66,23ZM116,20.78c-.08.47-.15.82-.28,1.48a8.44,8.44,0,0,0,1.38-.41c1.36-.6.46-1.89,0-2.09C116.43,19.44,116.1,20,116,20.78Zm7.43,11.78a9.64,9.64,0,0,1-3,.08c-2-.25-2.72-1.12-2.83-2.09-.2-1.55,1-2.69,2.33-3.51A11.49,11.49,0,0,1,122,25.93c.35-.15.46-.41,0-.64a2.43,2.43,0,0,0-.84-.26,8.83,8.83,0,0,0-2.54.11c-.8.15-1.23-1.19-.26-1.39a8.76,8.76,0,0,1,3.06-.12c1.68.32,2.42,1.23,2.22,2.11-.28,1.08-1.47,1.23-3.11,2.24-.38.22-1.91,1.21-1.59,2.33.21.72,1.18.82,1.62.87a8.44,8.44,0,0,0,2.61-.09C124.24,30.86,124.37,32.39,123.42,32.56Z"/><path class="cls-2" d="M159.89,30.43c-.25.45-1,.34-1.37,0a10.73,10.73,0,0,1-1.4-4.33l0,.2A11,11,0,0,1,155,30.12c-1.74,1.89-4.61,3.39-6.73,2.07-1.53-.91-2.59-3.25-.78-7.29a13.11,13.11,0,0,1,.78-1.48,2.77,2.77,0,0,1-1.31-3.11.75.75,0,1,1,1.48.22c-.11.68-.22,1.53.58,1.79a9.26,9.26,0,0,1,1.57-1.68c2.47-1.92,4.34,1.31,1.28,2.61a5.11,5.11,0,0,1-2.23.39,14.58,14.58,0,0,0-.91,1.81c-.77,1.79-1.39,4.51.31,5.52,1.39.84,3.71-.57,4.86-1.81a13.18,13.18,0,0,0,3-7.68c.07-.88,1.4-.62,1.28.18-.17,1.11.12,5.42,1.18,7.27C159.64,29.41,160.16,29.92,159.89,30.43Zm-9.54-7.95a3.51,3.51,0,0,0,1.54-.53c.71-.51.33-1-.37-.56A5.85,5.85,0,0,0,150.35,22.48ZM160.11,26c-.12-.15-.51-.79-1.29-1.76a.49.49,0,0,1,.78-.6A6.49,6.49,0,0,1,161,25.45.51.51,0,0,1,160.11,26Zm1.54-1a14.32,14.32,0,0,0-1.26-1.62c-.39-.51.27-1.06.75-.61a9.07,9.07,0,0,1,1.35,1.58A.53.53,0,1,1,161.65,24.93Z"/><path class="cls-2" d="M117.72,68.05c-1.38,2.09-3.8,1.21-4.75-1a3,3,0,0,1-.19-.9,27.11,27.11,0,0,1-2.84,3.12c-.62.6-1.76-.26-1-1A24.22,24.22,0,0,0,112.73,64a23.11,23.11,0,0,0,1.59-2.65,19.15,19.15,0,0,0-3.41,1c-.84.32-1.47-1-.54-1.32a23.44,23.44,0,0,1,4.54-1.18,17.77,17.77,0,0,0,.86-4,.75.75,0,0,1,1.48.15,22.05,22.05,0,0,1-.84,3.72,2.59,2.59,0,0,1,2.08.92,4.51,4.51,0,0,1,.44,3.42A14.61,14.61,0,0,1,117.72,68.05Zm2.38-2.78.57,0c1.2-.12,2.58-.63,2.38-1.85a3,3,0,0,0-1.59-1.87c-.81-.41-.11-1.49.62-1.14a4,4,0,0,1,2.26,2.77c.39,2.11-1.42,3-3.57,3.3l-.65.06C119.21,66.56,119.19,65.36,120.1,65.27Zm-2.72-3.82c-.3-.38-.86-.41-1.49-.4a19.24,19.24,0,0,1-2,3.5,1.27,1.27,0,0,0-.18.58,3,3,0,0,0,.26,1.42,1.86,1.86,0,0,0,1.66,1.31,1.26,1.26,0,0,0,.86-.6,8.22,8.22,0,0,0,1-3.38C117.64,63.22,117.79,62,117.38,61.45Z"/><path class="cls-2" d="M147.59,64.57a.74.74,0,1,1-1.2-.88,14.91,14.91,0,0,0,3-5,9.31,9.31,0,0,1-2.46-.23.71.71,0,1,1,.24-1.39,11,11,0,0,0,2.63.18c.33-1.19.37-2.19,1.34-2.87,1.84-1.21,3.83,1.35,2.72,2.87a4.07,4.07,0,0,1-3,1.29A15.59,15.59,0,0,1,147.59,64.57Zm8.62-3.11a2.63,2.63,0,0,0-.56,2c0,.84.19,1.57.21,2.38a10.69,10.69,0,0,1,3.26,1.94c.78.71-.34,1.73-1,1.12a9.7,9.7,0,0,0-2.48-1.66,2.59,2.59,0,0,1-2.05,2c-3.65.83-4.68-3.77-1-4a5.84,5.84,0,0,1,1.87.2c0-.48-.19-1.21-.17-2a4,4,0,0,1,.73-2.55,7.79,7.79,0,0,1-1.74-1.36c-.54-.73.49-1.7,1.07-1A8,8,0,0,0,156.08,60a5,5,0,0,1,2.4-.8c2.48-.19,2.57,2.81.19,2.94A6.22,6.22,0,0,1,156.21,61.46Zm-4.47-6.15a4.26,4.26,0,0,0-.58,1.88,2.3,2.3,0,0,0,1.73-.61C153.34,55.92,152.3,54.82,151.74,55.31Zm.95,11.16c-1.57.09-1,1.84.65,1.49a1.4,1.4,0,0,0,1.08-1.27A4.7,4.7,0,0,0,152.69,66.47Zm4.47-5.87a4.44,4.44,0,0,0,1.36.3c.86,0,.74-.78,0-.65A5.18,5.18,0,0,0,157.16,60.6Z"/></g></g></svg>