<svg xmlns="http://www.w3.org/2000/svg" viewBox="0 0 83.15 91.25"><title>i_step_02</title><g id="レイヤー_2" data-name="レイヤー 2"><g id="レイヤー_1-2" data-name="レイヤー 1"><path d="M0,28.84C8.32-.65,41.85-9.65,62.37,11.83c18.94,20.93,6.2,53.06-19,58.54C23.77,75.49,5.1,61,0,42.69ZM35.24,69.52c18.86,1.15,34.85-15.69,34.9-33.46C69.85,4.15,33.27-9,11.93,10.62-11,32.59,5.45,70.16,35.24,69.52Z"/><path d="M81.25,91.19C72.4,80.94,66.37,74.73,61.6,68.93c-.66-.8,1.11-1.22,1.11-1.22,6.64,6.94,10.42,11.41,20.44,22.52A1.59,1.59,0,0,1,81.25,91.19Z"/><path d="M35.72,7.06C50.5,6.69,64.18,19.21,64.41,35.51S49.86,64.37,35.8,64.4C-3.09,62.08-1.88,8.22,35.72,7.06ZM52.18,56.38C72.1,43.4,62.91,12.13,39.87,8.63,18,5-.42,30.41,12.46,49.3c1.23-4,2.83-7.75,6.62-10.22C24,36.3,28,38.73,31.71,42c2.43-1.11,5.18-1.26,6.24-3.27L31.86,28.09c-2.94-1-6.3,1.18-9.48-2.21H32c1.54-6.55,2.83-7.77,8.22-7.78l4.62,5L54,20c-2.42,4.31-6.43,4.08-9.18,5.42a37.56,37.56,0,0,1-3.21,12.85A23.73,23.73,0,0,1,52.18,56.38ZM32.86,44.22c1.82,5.82.85,12,1.43,18.24,6,.44,11.32-.66,16.1-4.34-.94-7-3.23-14.59-10.21-18Zm-9,15.56c.92-6.13-.14-12.11,5.66-16.55-7.72-8.58-14.34.84-15.82,8.68C16.76,54.91,19,58.21,23.85,59.78Zm3.28-11.17c-1,4.35-2.23,8.22-.8,12.43a39.56,39.56,0,0,1,4.89,1.4C33.46,58,33,50,30.32,45.57ZM39.38,36.87c2.8-3.17,3.35-6.72,3-10.72l-7.84,1.19C35.08,31.14,37.13,33.84,39.38,36.87ZM40.17,20l-3.85.28-2.1,4.89c3.2-.61,5.83.36,8-1.93Z"/></g></g></svg>