<svg xmlns="http://www.w3.org/2000/svg" viewBox="0 0 87.07 118.01"><defs><style>.cls-1{fill:#181818;}</style></defs><title>i_tabikana</title><g id="レイヤー_2" data-name="レイヤー 2"><g id="ロゴ"><path class="cls-1" d="M21.84,27.18c2.63-1.52,5.54-2.41,7.76-4.64A26.6,26.6,0,0,1,25.32,17a18.39,18.39,0,0,1-2.15-6.73c-.86,0-1.72.11-2.58.13-2.28.05-4.57.08-6.85.11-.56,0-1-.22-1-.85s.35-.84,1-.85l9.14-.15c.2-1.17.32-2.22.57-3.24a7.11,7.11,0,0,1,2.54-4A5.24,5.24,0,0,1,33.6,2.41a21.24,21.24,0,0,1,1.72,3.36c.07.14.1.29.2.57,2.07-.73,4.11-1.42,6.13-2.16,1-.35,1.91-.79,2.86-1.19.68-.28,1.2-.15,1.37.38s-.11,1-.67,1.19L35.76,8.17a26.58,26.58,0,0,1-.57,7.36A17.93,17.93,0,0,1,32,22.42c.57.47,1.1,1,1.67,1.39,1.09.82,2.17,1.67,3.33,2.38a11,11,0,0,1,5.09,7.32c.68,3.09,1.27,6.21,2,9.29A38.94,38.94,0,0,0,48.4,53.63c.12.2.25.39.41.64a37.89,37.89,0,0,0,2.64-7.43c1-4,1.93-7.93,3-11.88a19.14,19.14,0,0,1,4-8.09A6.62,6.62,0,0,0,60,23.92a8.77,8.77,0,0,1,4.53-5.79c-.65-1.72-1.43-3.36-1.9-5.09a14.36,14.36,0,0,1,0-8C63.41,2.43,65,.52,67.76.09a6.77,6.77,0,0,1,6.57,2.77,9,9,0,0,1,1.78,6.7,14.81,14.81,0,0,1-3.45,8.68c.32.26.61.47.88.71a10.39,10.39,0,0,1,3.51,6.2,1.56,1.56,0,0,0,.62.92,12.17,12.17,0,0,1,5,6.1,64.51,64.51,0,0,1,4,15A58.32,58.32,0,0,1,87,57.32a97.84,97.84,0,0,1-1.56,11.45,70.94,70.94,0,0,0-.68,11.48,76.74,76.74,0,0,0,1,9.46A7.23,7.23,0,0,1,85.59,92a3.77,3.77,0,0,1-3,3.06c-.3.08-.6.14-1,.22v.74a76.19,76.19,0,0,1-.58,13.25c-.31,2-.88,4-1.38,6a3.81,3.81,0,0,1-.6,1.19,1.61,1.61,0,0,1-2.88,0,8.9,8.9,0,0,1-1.14-2.63c-.68-3-1.28-6.12-1.85-9.18-.53-2.8-1-5.6-1.46-8.4,0-.16-.09-.32-.16-.55h-5.1c-.07,1.17-.19,2.38-.22,3.59-.12,4.71-.18,9.42-.31,14.12a14.43,14.43,0,0,1-.45,2.92A1.85,1.85,0,0,1,64,117.93a1.89,1.89,0,0,1-1.93-1.06,37,37,0,0,1-2.11-4.52A81.9,81.9,0,0,1,56.16,96.7c-.89-6-1.54-12-2.32-18a122.06,122.06,0,0,0-2.7-15.89,43,43,0,0,0-1.7-4.46,2.92,2.92,0,0,0-.38-.52C48.51,59.3,48,60.63,47.5,62a63.86,63.86,0,0,0-3.31,17.75c-.26,5.66-.63,11.33-1.13,17a98.13,98.13,0,0,1-2.8,17,17.63,17.63,0,0,1-1.14,3,2,2,0,0,1-1.94,1.4,2.2,2.2,0,0,1-1.83-1.56,11.79,11.79,0,0,1-1-4.37c-.25-6.31-.37-12.62-.76-18.92-.28-4.59-.88-9.17-1.38-13.75a13.92,13.92,0,0,0-.55-2.18,3,3,0,0,0-.21-.49l-.24,0A25.06,25.06,0,0,0,30.28,80q-.81,5.33-1.44,10.69c-.42,3.6-.75,7.2-1.09,10.81-.27,2.88-.48,5.77-.77,8.65-.17,1.7-.44,3.4-.7,5.09a5.41,5.41,0,0,1-.42,1.27,1.88,1.88,0,0,1-1.63,1.38,2.07,2.07,0,0,1-1.81-1.17,12.91,12.91,0,0,1-1.63-5.92c-.29-3.51-.63-7-.94-10.54-.26-3.12-.49-6.24-.76-9.36-.54-6.44-.94-12.9-2.27-19.25a4.66,4.66,0,0,0-.13-.45c-1.46-.2-2.87-.35-4.28-.59a11.09,11.09,0,0,1-7.27-4.82A26.07,26.07,0,0,1,.89,55.46,46.56,46.56,0,0,1,3.14,29.74a11.44,11.44,0,0,1,4.42-6c3.78-2.47,10.16-2.52,13.67,2.54C21.41,26.59,21.61,26.86,21.84,27.18ZM24,116l.29,0a35.14,35.14,0,0,0,.7-3.48c.51-5.08.91-10.17,1.43-15.25q.86-8.1,1.86-16.19A14.28,14.28,0,0,1,29.78,76a1.84,1.84,0,0,1,1.73-1.22,1.72,1.72,0,0,1,1.55,1.35,19,19,0,0,1,1,3.66c.49,4.11,1,8.23,1.25,12.36.37,6.43.48,12.89.79,19.33a25.65,25.65,0,0,0,.81,4.12,3.15,3.15,0,0,0,.41.79,10.39,10.39,0,0,0,.73-1.46,37,37,0,0,0,1.26-4.61c.74-4.49,1.49-9,2-13.52s.69-9,1-13.58c.2-2.91.27-5.84.6-8.74a61.93,61.93,0,0,1,4.8-17.68,1.09,1.09,0,0,0-.07-1.15,40,40,0,0,1-5.19-12.5c-.72-3.06-1.32-6.15-2-9.22A9.5,9.5,0,0,0,36,27.57c-1.37-.85-2.63-1.89-3.94-2.86-.41-.3-.78-.64-1.19-1-2.31,2.4-5.44,3.37-8.19,5,1.75,3.66,2,7.51,2.09,11.42a74.73,74.73,0,0,1-.9,11.67,9.78,9.78,0,0,1-1.33,4,3,3,0,0,1-4.33,1.14,7,7,0,0,1-3.06-3.49A16.71,16.71,0,0,1,14,47.94a52.39,52.39,0,0,1,.56-11.26,11,11,0,0,1,5.2-8.31,5.82,5.82,0,0,0,.47-.36A8.18,8.18,0,0,0,9.83,24.53a8.63,8.63,0,0,0-4.75,5A44.72,44.72,0,0,0,2.47,54.63a26.42,26.42,0,0,0,3.8,9.71,10.11,10.11,0,0,0,7.9,4.8l2.13.18c-.05-.3-.08-.46-.1-.62-.21-1.41-.51-2.82-.6-4.24a2.21,2.21,0,0,1,1.34-2.29,2.1,2.1,0,0,1,2.29.48,4.93,4.93,0,0,1-.76,7.95s0,.08-.06.12c.64,3.65,1.24,7.32,1.62,11,.49,4.72.79,9.47,1.2,14.2q.68,8,1.41,16A9.06,9.06,0,0,0,24,116ZM75.46,32.11c-.34.47-.53.75-.75,1a8.59,8.59,0,0,1-4.16,3.24,2,2,0,0,1-2.8-2,6.78,6.78,0,0,1,1.73-4.73,3.46,3.46,0,0,1,3.61-1c.62.16,1.21.45,1.94.72.15-.78.32-1.53.42-2.28a.74.74,0,0,0-.32-.54l-7-4.55c-2,1.27-4.15,2.63-6.31,4a1.09,1.09,0,0,0-.57,1.23q.42,2.89.83,5.79c.06.4.26.56.64.71a9.45,9.45,0,0,1,2.15,1,1.44,1.44,0,0,1,0,2.41,2.06,2.06,0,0,1-3.44-.71c-.48-1-.88-1.79-2.17-1.73-.48,0-.76-.45-.67-1a.84.84,0,0,1,1-.69l.67,0-.77-5a14.21,14.21,0,0,0-2.18,3.71,60.12,60.12,0,0,0-2.81,9.58c-1.15,4.87-2.24,9.75-4.49,14.28a.82.82,0,0,0,.13.73A13.33,13.33,0,0,1,52.42,61,59.57,59.57,0,0,1,54,67.61q1.32,9,2.4,18a164.68,164.68,0,0,0,2.87,17.81,59.69,59.69,0,0,0,3.37,11,18.42,18.42,0,0,0,1,1.73l.2,0a4.65,4.65,0,0,0,.25-.86c.11-1.28.24-2.57.28-3.86.16-4.9.28-9.79.41-14.68,0-.37,0-.73,0-1.09-3.16-.29-4.5-1.4-5.24-4.44A22.65,22.65,0,0,1,59,87.68a33.32,33.32,0,0,1,2-13.92c1.31-3.71,4.34-5.2,8.08-4A16.3,16.3,0,0,1,76.94,76c2.65,3.55,3.54,7.68,4,11.94.21,1.87.4,3.74.6,5.61,1.54-.23,2.25-.81,2.36-2.08a12.09,12.09,0,0,0,0-2.33c-.27-2.54-.71-5.08-.86-7.63a66.54,66.54,0,0,1,.7-13.3c.37-2.58.9-5.14,1.21-7.73a51.83,51.83,0,0,0-.31-15.33,61.42,61.42,0,0,0-4-13.26,8.5,8.5,0,0,0-3.46-4c-.24.77-.44,1.52-.72,2.23a.87.87,0,0,0,.1.88,13.82,13.82,0,0,1,1.33,2.84,3.87,3.87,0,0,1-2.65,4.56A.83.83,0,0,1,74.14,38a.82.82,0,0,1,.42-1.13c.3-.18.63-.32.91-.52a1.91,1.91,0,0,0,.77-2.12A21.78,21.78,0,0,0,75.46,32.11Zm4.32,61.68A56.5,56.5,0,0,0,78.4,83.16a16.67,16.67,0,0,0-8.88-11.35c-3.39-1.72-5.86-.56-7.07,3a31.47,31.47,0,0,0-1.67,13.74,8.89,8.89,0,0,0,1.06,3.91,2.78,2.78,0,0,0,3,1.27c0-.32.09-.64.12-1,.38-4.62.72-9.24,1.18-13.85a13,13,0,0,1,1-3.65,1.31,1.31,0,0,1,2.47,0,6.67,6.67,0,0,1,.72,2c.56,3.17,1.06,6.35,1.58,9.52.39,2.36.78,4.72,1.17,7ZM21.14,29.57C18.73,31,17,32.88,16.54,35.7c-.31,1.94-.62,3.89-.77,5.86a35,35,0,0,0,.35,9.2,6.54,6.54,0,0,0,2.7,4.53c1,.68,1.79.54,2.32-.56A10,10,0,0,0,22,52a62.42,62.42,0,0,0,.86-15.38A18.74,18.74,0,0,0,21.14,29.57ZM66.37,17.34a19.8,19.8,0,0,1,2.08-.21,9.84,9.84,0,0,1,2,.22.84.84,0,0,0,1-.31,13,13,0,0,0,2.93-7.42,7.78,7.78,0,0,0-1-5.09,5.67,5.67,0,0,0-4.27-2.79c-2.1-.28-4.08,1.19-4.82,3.62a14,14,0,0,0-.22,6.57A12.52,12.52,0,0,0,66.37,17.34ZM73.5,95.69a4.42,4.42,0,0,0,0,.52c1,5.4,1.94,10.81,3,16.21a23.06,23.06,0,0,0,1,3.07l.35,0c2.23-6.47,2.18-13.19,2.07-20ZM30.76,21.24c2.76-3.86,3.46-8.17,3.3-12.71l-9.15,1.61C25.41,14.55,27.65,18.05,30.76,21.24ZM66.61,93.86h4.77c-1.1-5.68-1.72-11.36-3-16.93C67.36,82.51,67.21,88.16,66.61,93.86Zm-32.84-87a6.71,6.71,0,0,0-2.09-4,3.55,3.55,0,0,0-4.38-.31A6.4,6.4,0,0,0,25,8.39ZM74.11,31.07c-1.12-.94-2.43-1.13-3.21-.37a5.33,5.33,0,0,0-1.39,4.19C71.73,34.31,72.88,32.69,74.11,31.07Zm.81-6.63.16-.13a8.32,8.32,0,0,0-3.66-4.74L69.78,21ZM61.8,23.85l5.2-3.1c-.37-.4-.66-.74-1-1a.52.52,0,0,0-.47-.14A7.09,7.09,0,0,0,61.8,23.85ZM17.57,63.62c-.7,1.91.24,3.52.4,5.22a1.81,1.81,0,0,0,1.15-2A3.46,3.46,0,0,0,17.57,63.62ZM69.35,19.05v-.23l-1.75.08.88.83Z"/></g></g></svg>